{
	"asset":{
		"generator":"Khronos glTF Blender I/O v4.4.55",
		"version":"2.0"
	},
	"extensionsUsed":[
		"KHR_materials_specular"
	],
	"scene":0,
	"scenes":[
		{
			"name":"Scene",
			"nodes":[
				0,
				1
			]
		}
	],
	"nodes":[
		{
			"mesh":0,
			"name":"Earth",
			"rotation":[
				0,
				0.019633693620562553,
				0,
				0.9998072385787964
			]
		},
		{
			"mesh":1,
			"name":"EarthClouds",
			"rotation":[
				0.0017040970269590616,
				0.009668282233178616,
				0.1735745668411255,
				0.9847717881202698
			],
			"scale":[
				1.0099999904632568,
				1.0099999904632568,
				1.010000228881836
			]
		}
	],
	"materials":[
		{
			"doubleSided":true,
			"emissiveFactor":[
				1,
				1,
				1
			],
			"emissiveTexture":{
				"index":0
			},
			"extensions":{
				"KHR_materials_specular":{
					"specularColorTexture":{
						"index":1
					}
				}
			},
			"name":"standardSurface2",
			"normalTexture":{
				"index":2
			},
			"pbrMetallicRoughness":{
				"baseColorTexture":{
					"index":3
				},
				"metallicFactor":0,
				"roughnessFactor":0.5527864098548889
			}
		},
		{
			"alphaMode":"BLEND",
			"doubleSided":true,
			"name":"standardSurface3",
			"pbrMetallicRoughness":{
				"baseColorTexture":{
					"index":4
				},
				"metallicFactor":0,
				"roughnessFactor":0.5527864098548889
			}
		}
	],
	"meshes":[
		{
			"name":"Mesh",
			"primitives":[
				{
					"attributes":{
						"POSITION":0,
						"NORMAL":1,
						"TEXCOORD_0":2
					},
					"indices":3,
					"material":0
				}
			]
		},
		{
			"name":"Mesh.001",
			"primitives":[
				{
					"attributes":{
						"POSITION":4,
						"NORMAL":5,
						"TEXCOORD_0":6
					},
					"indices":3,
					"material":1
				}
			]
		}
	],
	"textures":[
		{
			"sampler":0,
			"source":0
		},
		{
			"sampler":0,
			"source":1
		},
		{
			"sampler":0,
			"source":2
		},
		{
			"sampler":0,
			"source":3
		},
		{
			"sampler":0,
			"source":4
		}
	],
	"images":[
		{
			"mimeType":"image/png",
			"name":"earth_Earth_Emission",
			"uri":"earth_Earth_Emission.png"
		},
		{
			"mimeType":"image/png",
			"name":"earth_Earth_SpecularSmoothness",
			"uri":"earth_Earth_SpecularSmoothness.png"
		},
		{
			"mimeType":"image/png",
			"name":"earth_Earth_Normal",
			"uri":"earth_Earth_Normal.png"
		},
		{
			"mimeType":"image/png",
			"name":"earth_Earth_AlbedoTransparency",
			"uri":"earth_Earth_AlbedoTransparency.png"
		},
		{
			"mimeType":"image/png",
			"name":"earth_Cloud_AlbedoTransparency",
			"uri":"earth_Cloud_AlbedoTransparency.png"
		}
	],
	"accessors":[
		{
			"bufferView":0,
			"componentType":5126,
			"count":8383,
			"max":[
				5,
				5,
				5
			],
			"min":[
				-5,
				-5,
				-5
			],
			"type":"VEC3"
		},
		{
			"bufferView":1,
			"componentType":5126,
			"count":8383,
			"type":"VEC3"
		},
		{
			"bufferView":2,
			"componentType":5126,
			"count":8383,
			"type":"VEC2"
		},
		{
			"bufferView":3,
			"componentType":5123,
			"count":48384,
			"type":"SCALAR"
		},
		{
			"bufferView":4,
			"componentType":5126,
			"count":8383,
			"max":[
				5,
				5,
				5
			],
			"min":[
				-5,
				-5,
				-5
			],
			"type":"VEC3"
		},
		{
			"bufferView":5,
			"componentType":5126,
			"count":8383,
			"type":"VEC3"
		},
		{
			"bufferView":6,
			"componentType":5126,
			"count":8383,
			"type":"VEC2"
		}
	],
	"bufferViews":[
		{
			"buffer":0,
			"byteLength":100596,
			"byteOffset":0,
			"target":34962
		},
		{
			"buffer":0,
			"byteLength":100596,
			"byteOffset":100596,
			"target":34962
		},
		{
			"buffer":0,
			"byteLength":67064,
			"byteOffset":201192,
			"target":34962
		},
		{
			"buffer":0,
			"byteLength":96768,
			"byteOffset":268256,
			"target":34963
		},
		{
			"buffer":0,
			"byteLength":100596,
			"byteOffset":365024,
			"target":34962
		},
		{
			"buffer":0,
			"byteLength":100596,
			"byteOffset":465620,
			"target":34962
		},
		{
			"buffer":0,
			"byteLength":67064,
			"byteOffset":566216,
			"target":34962
		}
	],
	"samplers":[
		{
			"magFilter":9729,
			"minFilter":9987
		}
	],
	"buffers":[
		{
			"byteLength":633280,
			"uri":"Earth.bin"
		}
	]
}
