{
	"asset":{
		"generator":"Khronos glTF Blender I/O v4.4.55",
		"version":"2.0"
	},
	"scene":0,
	"scenes":[
		{
			"name":"Scene",
			"nodes":[
				0
			]
		}
	],
	"nodes":[
		{
			"mesh":0,
			"name":"Man_Base_mesh",
			"rotation":[
				0.7071068286895752,
				0,
				0,
				0.7071068286895752
			]
		}
	],
	"materials":[
		{
			"doubleSided":true,
			"name":"lambert2",
			"pbrMetallicRoughness":{
				"baseColorFactor":[
					0.5,
					0.5,
					0.5,
					1
				],
				"metallicFactor":0,
				"roughnessFactor":0.5527864098548889
			}
		}
	],
	"meshes":[
		{
			"name":"Mesh.004",
			"primitives":[
				{
					"attributes":{
						"POSITION":0,
						"NORMAL":1,
						"TEXCOORD_0":2,
						"COLOR_0":3,
						"COLOR_1":4
					},
					"indices":5,
					"material":0
				}
			]
		}
	],
	"accessors":[
		{
			"bufferView":0,
			"componentType":5126,
			"count":5115,
			"max":[
				0.35099753737449646,
				0.20345856249332428,
				0.0008123512379825115
			],
			"min":[
				-0.35099753737449646,
				-0.10966191440820694,
				-1.7878899574279785
			],
			"type":"VEC3"
		},
		{
			"bufferView":1,
			"componentType":5126,
			"count":5115,
			"type":"VEC3"
		},
		{
			"bufferView":2,
			"componentType":5126,
			"count":5115,
			"type":"VEC2"
		},
		{
			"bufferView":3,
			"componentType":5121,
			"count":5115,
			"normalized":true,
			"type":"VEC4"
		},
		{
			"bufferView":4,
			"componentType":5123,
			"count":5115,
			"normalized":true,
			"type":"VEC4"
		},
		{
			"bufferView":5,
			"componentType":5123,
			"count":26706,
			"type":"SCALAR"
		}
	],
	"bufferViews":[
		{
			"buffer":0,
			"byteLength":61380,
			"byteOffset":0,
			"target":34962
		},
		{
			"buffer":0,
			"byteLength":61380,
			"byteOffset":61380,
			"target":34962
		},
		{
			"buffer":0,
			"byteLength":40920,
			"byteOffset":122760,
			"target":34962
		},
		{
			"buffer":0,
			"byteLength":20460,
			"byteOffset":163680,
			"target":34962
		},
		{
			"buffer":0,
			"byteLength":40920,
			"byteOffset":184140,
			"target":34962
		},
		{
			"buffer":0,
			"byteLength":53412,
			"byteOffset":225060,
			"target":34963
		}
	],
	"buffers":[
		{
			"byteLength":278472,
			"uri":"Figure2.bin"
		}
	]
}
