{
	"asset":{
		"generator":"Khronos glTF Blender I/O v4.4.55",
		"version":"2.0"
	},
	"scene":0,
	"scenes":[
		{
			"name":"Scene",
			"nodes":[
				0,
				3
			]
		}
	],
	"nodes":[
		{
			"name":"Steak",
			"rotation":[
				0.7071068286895752,
				0,
				0,
				0.7071068286895752
			],
			"scale":[
				0.009999999776482582,
				0.009999999776482582,
				0.009999999776482582
			]
		},
		{
			"mesh":0,
			"name":"Fry_pan1",
			"rotation":[
				-0.70710688829422,
				0,
				0,
				0.7071066498756409
			],
			"scale":[
				100,
				100,
				100
			],
			"translation":[
				0,
				0,
				-0.19999998807907104
			]
		},
		{
			"mesh":1,
			"name":"Mackerel.001",
			"rotation":[
				-0.29549887776374817,
				-0.6333593726158142,
				-0.28538045287132263,
				0.6558157801628113
			],
			"scale":[
				0.8706617951393127,
				0.870661735534668,
				1.105398416519165
			],
			"translation":[
				-4.588818550109863,
				-4.893094062805176,
				-1.4657495021820068
			]
		},
		{
			"children":[
				1,
				2
			],
			"name":"Mackerel",
			"rotation":[
				0.7071068286895752,
				0,
				0,
				0.7071068286895752
			],
			"scale":[
				0.009999999776482582,
				0.009999999776482582,
				0.009999999776482582
			]
		}
	],
	"materials":[
		{
			"doubleSided":true,
			"name":"FryPan.001",
			"normalTexture":{
				"index":0
			},
			"pbrMetallicRoughness":{
				"baseColorTexture":{
					"index":1
				},
				"metallicRoughnessTexture":{
					"index":2
				},
				"roughnessFactor":0.31686994433403015
			}
		},
		{
			"alphaMode":"BLEND",
			"doubleSided":true,
			"name":"Mackerel1",
			"normalTexture":{
				"index":3
			},
			"pbrMetallicRoughness":{
				"baseColorTexture":{
					"index":4
				},
				"metallicRoughnessTexture":{
					"index":5
				},
				"roughnessFactor":0.19326981902122498
			}
		}
	],
	"meshes":[
		{
			"name":"Mesh.003",
			"primitives":[
				{
					"attributes":{
						"POSITION":0,
						"NORMAL":1,
						"TEXCOORD_0":2
					},
					"indices":3,
					"material":0
				}
			]
		},
		{
			"name":"Mesh.002",
			"primitives":[
				{
					"attributes":{
						"POSITION":4,
						"NORMAL":5,
						"TEXCOORD_0":6
					},
					"indices":7,
					"material":1
				}
			]
		}
	],
	"textures":[
		{
			"sampler":0,
			"source":0
		},
		{
			"sampler":0,
			"source":1
		},
		{
			"sampler":0,
			"source":2
		},
		{
			"sampler":0,
			"source":3
		},
		{
			"sampler":0,
			"source":4
		},
		{
			"sampler":0,
			"source":5
		}
	],
	"images":[
		{
			"mimeType":"image/png",
			"name":"Fry_pan_FryPan_Normal",
			"uri":"Fry_pan_FryPan_Normal.png"
		},
		{
			"mimeType":"image/png",
			"name":"Fry_pan_FryPan_AlbedoTransparency",
			"uri":"Fry_pan_FryPan_AlbedoTransparency.png"
		},
		{
			"mimeType":"image/png",
			"name":"Fry_pan_FryPan_MetallicSmoothness",
			"uri":"Fry_pan_FryPan_MetallicSmoothness.png"
		},
		{
			"mimeType":"image/png",
			"name":"Fry_pan_Makerel_Normal",
			"uri":"Fry_pan_Makerel_Normal.png"
		},
		{
			"mimeType":"image/png",
			"name":"Fry_pan_Makerel_AlbedoTransparency",
			"uri":"Fry_pan_Makerel_AlbedoTransparency.png"
		},
		{
			"mimeType":"image/png",
			"name":"Fry_pan_Makerel_MetallicSmoothness",
			"uri":"Fry_pan_Makerel_MetallicSmoothness.png"
		}
	],
	"accessors":[
		{
			"bufferView":0,
			"componentType":5126,
			"count":867,
			"max":[
				0.14000000059604645,
				0.05725925788283348,
				0.34911227226257324
			],
			"min":[
				-0.14000000059604645,
				-0.002555159153416753,
				-0.14000000059604645
			],
			"type":"VEC3"
		},
		{
			"bufferView":1,
			"componentType":5126,
			"count":867,
			"type":"VEC3"
		},
		{
			"bufferView":2,
			"componentType":5126,
			"count":867,
			"type":"VEC2"
		},
		{
			"bufferView":3,
			"componentType":5123,
			"count":2838,
			"type":"SCALAR"
		},
		{
			"bufferView":4,
			"componentType":5126,
			"count":342,
			"max":[
				3.58013916015625,
				20.186279296875,
				4.4857177734375
			],
			"min":[
				-1.3908625841140747,
				-4.73284912109375,
				-3.006256103515625
			],
			"type":"VEC3"
		},
		{
			"bufferView":5,
			"componentType":5126,
			"count":342,
			"type":"VEC3"
		},
		{
			"bufferView":6,
			"componentType":5126,
			"count":342,
			"type":"VEC2"
		},
		{
			"bufferView":7,
			"componentType":5123,
			"count":1242,
			"type":"SCALAR"
		}
	],
	"bufferViews":[
		{
			"buffer":0,
			"byteLength":10404,
			"byteOffset":0,
			"target":34962
		},
		{
			"buffer":0,
			"byteLength":10404,
			"byteOffset":10404,
			"target":34962
		},
		{
			"buffer":0,
			"byteLength":6936,
			"byteOffset":20808,
			"target":34962
		},
		{
			"buffer":0,
			"byteLength":5676,
			"byteOffset":27744,
			"target":34963
		},
		{
			"buffer":0,
			"byteLength":4104,
			"byteOffset":33420,
			"target":34962
		},
		{
			"buffer":0,
			"byteLength":4104,
			"byteOffset":37524,
			"target":34962
		},
		{
			"buffer":0,
			"byteLength":2736,
			"byteOffset":41628,
			"target":34962
		},
		{
			"buffer":0,
			"byteLength":2484,
			"byteOffset":44364,
			"target":34963
		}
	],
	"samplers":[
		{
			"magFilter":9729,
			"minFilter":9987
		}
	],
	"buffers":[
		{
			"byteLength":46848,
			"uri":"Mackerel.bin"
		}
	]
}
