{
	"asset":{
		"generator":"Khronos glTF Blender I/O v4.4.55",
		"version":"2.0"
	},
	"extensionsUsed":[
		"KHR_materials_specular",
		"KHR_materials_ior"
	],
	"scene":0,
	"scenes":[
		{
			"name":"Scene",
			"nodes":[
				2,
				5,
				10,
				13,
				16
			]
		}
	],
	"nodes":[
		{
			"mesh":0,
			"name":"Rectangle",
			"rotation":[
				-0.5,
				-0.5,
				-0.5,
				0.5
			],
			"scale":[
				2.8582067489624023,
				2.573988676071167,
				1
			],
			"translation":[
				331.82635498046875,
				1,
				-158.1478271484375
			]
		},
		{
			"children":[
				0
			],
			"name":"Scene"
		},
		{
			"children":[
				1
			],
			"name":"Ground",
			"scale":[
				0.009999999776482582,
				0.009999999776482582,
				0.009999999776482582
			]
		},
		{
			"name":"Stove.002",
			"rotation":[
				-0.70710688829422,
				0,
				0,
				0.7071066498756409
			],
			"scale":[
				100,
				99.99998474121094,
				99.99998474121094
			],
			"translation":[
				-5.888069608772639e-06,
				4.228438854217529,
				-1.050440788269043
			]
		},
		{
			"children":[
				3
			],
			"name":"RootNode"
		},
		{
			"children":[
				4
			],
			"name":"Stovefbx",
			"rotation":[
				0.70710688829422,
				0,
				0,
				0.7071066498756409
			],
			"scale":[
				0.009999999776482582,
				0.009999999776482582,
				0.009999999776482582
			]
		},
		{
			"mesh":1,
			"name":"Stove__0"
		},
		{
			"children":[
				6
			],
			"name":"Stove.001",
			"rotation":[
				-0.70710688829422,
				0,
				0,
				0.7071066498756409
			],
			"scale":[
				100,
				99.99998474121094,
				99.99998474121094
			],
			"translation":[
				-5.888069608772639e-06,
				4.228438854217529,
				-1.0504405498504639
			]
		},
		{
			"children":[
				7
			],
			"name":"RootNode.001"
		},
		{
			"children":[
				8
			],
			"name":"Stove.fbx",
			"rotation":[
				0.70710688829422,
				0,
				0,
				0.7071066498756409
			],
			"scale":[
				0.009999999776482582,
				0.009999999776482582,
				0.009999999776482582
			]
		},
		{
			"children":[
				9
			],
			"name":"Stove",
			"rotation":[
				-0.70710688829422,
				0,
				0,
				0.7071066498756409
			]
		},
		{
			"mesh":2,
			"name":"Fry_pan",
			"rotation":[
				-0.6736589670181274,
				-0.21490424871444702,
				0.21490424871444702,
				0.6736586689949036
			],
			"scale":[
				100.00000762939453,
				100,
				100
			],
			"translation":[
				0.5009558796882629,
				-2.1786653995513916,
				0.10503466427326202
			]
		},
		{
			"mesh":3,
			"name":"Steak.001",
			"rotation":[
				0.6878511309623718,
				-0.1638929545879364,
				-0.16389305889606476,
				0.687851071357727
			],
			"scale":[
				0.015871677547693253,
				0.034432679414749146,
				0.01587168127298355
			],
			"translation":[
				0.07245201617479324,
				-2.5894358158111572,
				-2.0639171600341797
			]
		},
		{
			"children":[
				11,
				12
			],
			"name":"Steak",
			"rotation":[
				0.6732102036476135,
				0.21630564332008362,
				-0.2163057029247284,
				0.6732100248336792
			],
			"scale":[
				0.00782147329300642,
				0.007821474224328995,
				0.00782147515565157
			],
			"translation":[
				0.17473268508911133,
				0.12013387680053711,
				-0.040388237684965134
			]
		},
		{
			"mesh":4,
			"name":"Fry_pan1",
			"rotation":[
				-0.684939444065094,
				-0.1756647378206253,
				0.1756647378206253,
				0.6849392652511597
			],
			"scale":[
				100,
				100,
				99.99999237060547
			],
			"translation":[
				1.5782310962677002,
				-0.8883144855499268,
				-0.20000019669532776
			]
		},
		{
			"mesh":5,
			"name":"Mackerel.001",
			"rotation":[
				-0.12889127433300018,
				-0.6869139075279236,
				-0.11351124197244644,
				0.706152617931366
			],
			"scale":[
				0.8706617951393127,
				0.8706617951393127,
				1.105398416519165
			],
			"translation":[
				-0.08923827856779099,
				-7.385941505432129,
				-2.0554351806640625
			]
		},
		{
			"children":[
				14,
				15
			],
			"name":"Mackerel",
			"rotation":[
				0.6845168471336365,
				0.17730401456356049,
				-0.1773039996623993,
				0.6845168471336365
			],
			"scale":[
				0.007858550176024437,
				0.007858551107347012,
				0.007858551107347012
			],
			"translation":[
				-0.17291952669620514,
				0.1172996461391449,
				-0.03894438594579697
			]
		}
	],
	"materials":[
		{
			"doubleSided":true,
			"name":"Scene_-_Root",
			"normalTexture":{
				"index":0
			},
			"pbrMetallicRoughness":{
				"baseColorTexture":{
					"index":1
				},
				"metallicRoughnessTexture":{
					"index":2
				}
			}
		},
		{
			"doubleSided":true,
			"extensions":{
				"KHR_materials_specular":{
					"specularColorFactor":[
						2.0,
						2.0,
						2.0
					]
				}
			},
			"name":"FryPan",
			"normalTexture":{
				"index":3
			},
			"pbrMetallicRoughness":{
				"baseColorTexture":{
					"index":4
				},
				"metallicRoughnessTexture":{
					"index":5
				},
				"roughnessFactor":0.31686994433403015
			}
		},
		{
			"doubleSided":true,
			"extensions":{
				"KHR_materials_specular":{
					"specularColorFactor":[
						2.0,
						2.0,
						2.0
					]
				}
			},
			"name":"Steak1",
			"normalTexture":{
				"index":6
			},
			"pbrMetallicRoughness":{
				"baseColorTexture":{
					"index":7
				},
				"metallicFactor":0.006042301654815674,
				"roughnessFactor":0.2416081726551056
			}
		},
		{
			"doubleSided":true,
			"extensions":{
				"KHR_materials_specular":{
					"specularColorFactor":[
						2.0,
						2.0,
						2.0
					]
				}
			},
			"name":"Mat.1",
			"normalTexture":{
				"index":8
			},
			"pbrMetallicRoughness":{
				"baseColorTexture":{
					"index":9
				},
				"metallicFactor":0,
				"roughnessFactor":0.5527864098548889
			}
		},
		{
			"doubleSided":true,
			"extensions":{
				"KHR_materials_specular":{
					"specularColorFactor":[
						2.0,
						2.0,
						2.0
					]
				}
			},
			"name":"FryPan.002",
			"pbrMetallicRoughness":{
				"baseColorTexture":{
					"index":10
				},
				"metallicRoughnessTexture":{
					"index":11
				},
				"roughnessFactor":0.31686994433403015
			}
		},
		{
			"doubleSided":true,
			"extensions":{
				"KHR_materials_specular":{
					"specularColorFactor":[
						2.0,
						2.0,
						2.0
					]
				},
				"KHR_materials_ior":{
					"ior":1.2000000476837158
				}
			},
			"name":"Mackerel_body",
			"normalTexture":{
				"index":12
			},
			"pbrMetallicRoughness":{
				"baseColorTexture":{
					"index":13
				},
				"metallicFactor":0.5,
				"roughnessFactor":0.1630583107471466
			}
		},
		{
			"alphaMode":"BLEND",
			"doubleSided":true,
			"extensions":{
				"KHR_materials_specular":{
					"specularColorFactor":[
						2.0,
						2.0,
						2.0
					]
				}
			},
			"name":"Mackerel1.001",
			"normalTexture":{
				"index":14
			},
			"pbrMetallicRoughness":{
				"baseColorTexture":{
					"index":15
				},
				"roughnessFactor":0.5527864098548889
			}
		}
	],
	"meshes":[
		{
			"name":"Mesh_0",
			"primitives":[
				{
					"attributes":{
						"POSITION":0,
						"NORMAL":1,
						"TEXCOORD_0":2
					},
					"indices":3
				}
			]
		},
		{
			"name":"Stove__0",
			"primitives":[
				{
					"attributes":{
						"POSITION":4,
						"NORMAL":5,
						"TEXCOORD_0":6
					},
					"indices":7,
					"material":0
				}
			]
		},
		{
			"name":"Mesh",
			"primitives":[
				{
					"attributes":{
						"POSITION":8,
						"NORMAL":9,
						"TEXCOORD_0":10
					},
					"indices":11,
					"material":1
				}
			]
		},
		{
			"name":"Mesh.001",
			"primitives":[
				{
					"attributes":{
						"POSITION":12,
						"NORMAL":13,
						"TEXCOORD_0":14
					},
					"indices":15,
					"material":2
				},
				{
					"attributes":{
						"POSITION":16,
						"NORMAL":17,
						"TEXCOORD_0":18
					},
					"indices":19,
					"material":3
				}
			]
		},
		{
			"name":"Mesh.005",
			"primitives":[
				{
					"attributes":{
						"POSITION":20,
						"NORMAL":21,
						"TEXCOORD_0":22
					},
					"indices":11,
					"material":4
				}
			]
		},
		{
			"name":"Mesh.004",
			"primitives":[
				{
					"attributes":{
						"POSITION":23,
						"NORMAL":24,
						"TEXCOORD_0":25
					},
					"indices":26,
					"material":5
				},
				{
					"attributes":{
						"POSITION":27,
						"NORMAL":28,
						"TEXCOORD_0":29
					},
					"indices":30,
					"material":6
				}
			]
		}
	],
	"textures":[
		{
			"sampler":0,
			"source":0
		},
		{
			"sampler":0,
			"source":1
		},
		{
			"sampler":0,
			"source":2
		},
		{
			"sampler":0,
			"source":3
		},
		{
			"sampler":0,
			"source":4
		},
		{
			"sampler":0,
			"source":5
		},
		{
			"sampler":0,
			"source":6
		},
		{
			"sampler":0,
			"source":7
		},
		{
			"sampler":0,
			"source":8
		},
		{
			"sampler":0,
			"source":7
		},
		{
			"sampler":0,
			"source":4
		},
		{
			"sampler":0,
			"source":5
		},
		{
			"sampler":0,
			"source":9
		},
		{
			"sampler":0,
			"source":10
		},
		{
			"sampler":0,
			"source":9
		},
		{
			"sampler":0,
			"source":10
		}
	],
	"images":[
		{
			"mimeType":"image/png",
			"name":"Scene_-_Root_normal",
			"uri":"Scene_-_Root_normal.png"
		},
		{
			"mimeType":"image/png",
			"name":"Scene_-_Root_baseColor",
			"uri":"Scene_-_Root_baseColor.png"
		},
		{
			"mimeType":"image/png",
			"name":"Scene_-_Root_metallicRoughness",
			"uri":"Scene_-_Root_metallicRoughness.png"
		},
		{
			"mimeType":"image/png",
			"name":"Fry_pan_FryPan_Normal",
			"uri":"Fry_pan_FryPan_Normal.png"
		},
		{
			"mimeType":"image/png",
			"name":"Fry_pan_FryPan_AlbedoTransparency",
			"uri":"Fry_pan_FryPan_AlbedoTransparency.png"
		},
		{
			"mimeType":"image/png",
			"name":"Fry_pan_FryPan_MetallicSmoothness",
			"uri":"Fry_pan_FryPan_MetallicSmoothness.png"
		},
		{
			"mimeType":"image/png",
			"name":"Fry_pan_Steak_Normal",
			"uri":"Fry_pan_Steak_Normal.png"
		},
		{
			"mimeType":"image/png",
			"name":"Fry_pan_Steak_AlbedoTransparency",
			"uri":"Fry_pan_Steak_AlbedoTransparency.png"
		},
		{
			"mimeType":"image/png",
			"name":"Fry_pan_Steak_side_Normal",
			"uri":"Fry_pan_Steak_side_Normal.png"
		},
		{
			"mimeType":"image/png",
			"name":"Fry_pan_Makerel_Normal",
			"uri":"Fry_pan_Makerel_Normal.png"
		},
		{
			"mimeType":"image/png",
			"name":"Fry_pan_Makerel_AlbedoTransparency",
			"uri":"Fry_pan_Makerel_AlbedoTransparency.png"
		}
	],
	"accessors":[
		{
			"bufferView":0,
			"componentType":5126,
			"count":4,
			"max":[
				605.7238159179688,
				874.4064331054688,
				0
			],
			"min":[
				-605.7238159179688,
				-874.4064331054688,
				0
			],
			"type":"VEC3"
		},
		{
			"bufferView":1,
			"componentType":5126,
			"count":4,
			"type":"VEC3"
		},
		{
			"bufferView":2,
			"componentType":5126,
			"count":4,
			"type":"VEC2"
		},
		{
			"bufferView":3,
			"componentType":5123,
			"count":6,
			"type":"SCALAR"
		},
		{
			"bufferView":4,
			"componentType":5126,
			"count":35681,
			"max":[
				0.32679441571235657,
				0.19365915656089783,
				0.07593844830989838
			],
			"min":[
				-0.326794296503067,
				-0.21219123899936676,
				-0.045308809727430344
			],
			"type":"VEC3"
		},
		{
			"bufferView":5,
			"componentType":5126,
			"count":35681,
			"type":"VEC3"
		},
		{
			"bufferView":6,
			"componentType":5126,
			"count":35681,
			"type":"VEC2"
		},
		{
			"bufferView":7,
			"componentType":5123,
			"count":72672,
			"type":"SCALAR"
		},
		{
			"bufferView":8,
			"componentType":5126,
			"count":871,
			"max":[
				0.14000000059604645,
				0.05725925788283348,
				0.34911227226257324
			],
			"min":[
				-0.14000000059604645,
				-0.002555159153416753,
				-0.14000000059604645
			],
			"type":"VEC3"
		},
		{
			"bufferView":9,
			"componentType":5126,
			"count":871,
			"type":"VEC3"
		},
		{
			"bufferView":10,
			"componentType":5126,
			"count":871,
			"type":"VEC2"
		},
		{
			"bufferView":11,
			"componentType":5123,
			"count":2838,
			"type":"SCALAR"
		},
		{
			"bufferView":12,
			"componentType":5126,
			"count":246,
			"max":[
				298.38128662109375,
				64.80000305175781,
				446.7973937988281
			],
			"min":[
				-362.1051940917969,
				0,
				-446.1863098144531
			],
			"type":"VEC3"
		},
		{
			"bufferView":13,
			"componentType":5126,
			"count":246,
			"type":"VEC3"
		},
		{
			"bufferView":14,
			"componentType":5126,
			"count":246,
			"type":"VEC2"
		},
		{
			"bufferView":15,
			"componentType":5123,
			"count":690,
			"type":"SCALAR"
		},
		{
			"bufferView":16,
			"componentType":5126,
			"count":714,
			"max":[
				323.2080993652344,
				64.80000305175781,
				471.6178894042969
			],
			"min":[
				-386.9267578125,
				0,
				-471.0124206542969
			],
			"type":"VEC3"
		},
		{
			"bufferView":17,
			"componentType":5126,
			"count":714,
			"type":"VEC3"
		},
		{
			"bufferView":18,
			"componentType":5126,
			"count":714,
			"type":"VEC2"
		},
		{
			"bufferView":19,
			"componentType":5123,
			"count":3510,
			"type":"SCALAR"
		},
		{
			"bufferView":20,
			"componentType":5126,
			"count":871,
			"max":[
				0.14000000059604645,
				0.05725925788283348,
				0.34911227226257324
			],
			"min":[
				-0.14000000059604645,
				-0.002555159153416753,
				-0.14000000059604645
			],
			"type":"VEC3"
		},
		{
			"bufferView":21,
			"componentType":5126,
			"count":871,
			"type":"VEC3"
		},
		{
			"bufferView":22,
			"componentType":5126,
			"count":871,
			"type":"VEC2"
		},
		{
			"bufferView":23,
			"componentType":5126,
			"count":170,
			"max":[
				2.46917724609375,
				17.990234375,
				2.809478759765625
			],
			"min":[
				-0.2798919677734375,
				-4.73284912109375,
				-1.720123291015625
			],
			"type":"VEC3"
		},
		{
			"bufferView":24,
			"componentType":5126,
			"count":170,
			"type":"VEC3"
		},
		{
			"bufferView":25,
			"componentType":5126,
			"count":170,
			"type":"VEC2"
		},
		{
			"bufferView":26,
			"componentType":5123,
			"count":834,
			"type":"SCALAR"
		},
		{
			"bufferView":27,
			"componentType":5126,
			"count":202,
			"max":[
				3.58013916015625,
				20.186279296875,
				4.4857177734375
			],
			"min":[
				-1.3908625841140747,
				-0.0275115966796875,
				-3.006256103515625
			],
			"type":"VEC3"
		},
		{
			"bufferView":28,
			"componentType":5126,
			"count":202,
			"type":"VEC3"
		},
		{
			"bufferView":29,
			"componentType":5126,
			"count":202,
			"type":"VEC2"
		},
		{
			"bufferView":30,
			"componentType":5123,
			"count":408,
			"type":"SCALAR"
		}
	],
	"bufferViews":[
		{
			"buffer":0,
			"byteLength":48,
			"byteOffset":0,
			"target":34962
		},
		{
			"buffer":0,
			"byteLength":48,
			"byteOffset":48,
			"target":34962
		},
		{
			"buffer":0,
			"byteLength":32,
			"byteOffset":96,
			"target":34962
		},
		{
			"buffer":0,
			"byteLength":12,
			"byteOffset":128,
			"target":34963
		},
		{
			"buffer":0,
			"byteLength":428172,
			"byteOffset":140,
			"target":34962
		},
		{
			"buffer":0,
			"byteLength":428172,
			"byteOffset":428312,
			"target":34962
		},
		{
			"buffer":0,
			"byteLength":285448,
			"byteOffset":856484,
			"target":34962
		},
		{
			"buffer":0,
			"byteLength":145344,
			"byteOffset":1141932,
			"target":34963
		},
		{
			"buffer":0,
			"byteLength":10452,
			"byteOffset":1287276,
			"target":34962
		},
		{
			"buffer":0,
			"byteLength":10452,
			"byteOffset":1297728,
			"target":34962
		},
		{
			"buffer":0,
			"byteLength":6968,
			"byteOffset":1308180,
			"target":34962
		},
		{
			"buffer":0,
			"byteLength":5676,
			"byteOffset":1315148,
			"target":34963
		},
		{
			"buffer":0,
			"byteLength":2952,
			"byteOffset":1320824,
			"target":34962
		},
		{
			"buffer":0,
			"byteLength":2952,
			"byteOffset":1323776,
			"target":34962
		},
		{
			"buffer":0,
			"byteLength":1968,
			"byteOffset":1326728,
			"target":34962
		},
		{
			"buffer":0,
			"byteLength":1380,
			"byteOffset":1328696,
			"target":34963
		},
		{
			"buffer":0,
			"byteLength":8568,
			"byteOffset":1330076,
			"target":34962
		},
		{
			"buffer":0,
			"byteLength":8568,
			"byteOffset":1338644,
			"target":34962
		},
		{
			"buffer":0,
			"byteLength":5712,
			"byteOffset":1347212,
			"target":34962
		},
		{
			"buffer":0,
			"byteLength":7020,
			"byteOffset":1352924,
			"target":34963
		},
		{
			"buffer":0,
			"byteLength":10452,
			"byteOffset":1359944,
			"target":34962
		},
		{
			"buffer":0,
			"byteLength":10452,
			"byteOffset":1370396,
			"target":34962
		},
		{
			"buffer":0,
			"byteLength":6968,
			"byteOffset":1380848,
			"target":34962
		},
		{
			"buffer":0,
			"byteLength":2040,
			"byteOffset":1387816,
			"target":34962
		},
		{
			"buffer":0,
			"byteLength":2040,
			"byteOffset":1389856,
			"target":34962
		},
		{
			"buffer":0,
			"byteLength":1360,
			"byteOffset":1391896,
			"target":34962
		},
		{
			"buffer":0,
			"byteLength":1668,
			"byteOffset":1393256,
			"target":34963
		},
		{
			"buffer":0,
			"byteLength":2424,
			"byteOffset":1394924,
			"target":34962
		},
		{
			"buffer":0,
			"byteLength":2424,
			"byteOffset":1397348,
			"target":34962
		},
		{
			"buffer":0,
			"byteLength":1616,
			"byteOffset":1399772,
			"target":34962
		},
		{
			"buffer":0,
			"byteLength":816,
			"byteOffset":1401388,
			"target":34963
		}
	],
	"samplers":[
		{
			"magFilter":9729,
			"minFilter":9987
		}
	],
	"buffers":[
		{
			"byteLength":1402204,
			"uri":"Scene.bin"
		}
	]
}
