<svg width="762" height="462" viewBox="0 0 762 462" fill="none" xmlns="http://www.w3.org/2000/svg">
<path d="M728.806 0C734.112 15.0134 737 31.1694 737 48C737 64.6881 734.159 80.7126 728.938 95.6182C749.466 117.962 762 147.766 762 180.5C762 249.812 705.812 306 636.5 306C631.727 306 627.016 305.732 622.381 305.213C598.469 354.791 547.73 389 489 389C468.365 389 448.717 384.774 430.872 377.146C393.52 428.565 332.916 462 264.5 462C196.424 462 136.081 428.896 98.6855 377.909C72.8843 399.796 39.4846 413 3 413C1.99762 413 0.997633 412.987 0 412.967V0H728.806Z" fill="white"/>
</svg>
