<svg width="907" height="485" viewBox="0 0 907 485" fill="none" xmlns="http://www.w3.org/2000/svg">
<path d="M863.306 0C875.204 20.9532 882 45.1826 882 71C882 87.6881 879.159 103.713 873.938 118.618C894.466 140.962 907 170.766 907 203.5C907 272.812 850.812 329 781.5 329C776.727 329 772.016 328.732 767.381 328.213C743.469 377.791 692.73 412 634 412C613.365 412 593.717 407.774 575.872 400.146C538.52 451.565 477.916 485 409.5 485C341.424 485 281.081 451.896 243.686 400.909C217.884 422.796 184.485 436 148 436C66.2619 436 0 369.738 0 288C0 247.443 16.3147 210.698 42.7373 183.966C15.9421 149.257 0 105.741 0 58.5C0 38.1758 2.95129 18.541 8.44727 0H863.306Z" fill="white"/>
</svg>
