{
	"asset":{
		"generator":"Khronos glTF Blender I/O v4.4.55",
		"version":"2.0"
	},
	"extensionsUsed":[
		"KHR_materials_specular"
	],
	"scene":0,
	"scenes":[
		{
			"name":"Scene",
			"nodes":[
				0,
				3
			]
		}
	],
	"nodes":[
		{
			"name":"e6be68e33aab4c9f954b6f82585f1849.obj.cleaner.materialmerger.gle"
		},
		{
			"mesh":0,
			"name":"polySurface1",
			"translation":[
				0.012779442593455315,
				0,
				0
			]
		},
		{
			"mesh":1,
			"name":"polySurface2"
		},
		{
			"children":[
				1,
				2
			],
			"name":"Object_2",
			"rotation":[
				-0.5000000596046448,
				-0.5,
				0.4999999403953552,
				0.5
			],
			"translation":[
				2.740468740463257,
				-1.1171623468399048,
				-4.92468786239624
			]
		}
	],
	"materials":[
		{
			"doubleSided":true,
			"extensions":{
				"KHR_materials_specular":{
					"specularColorFactor":[
						2.0,
						2.0,
						2.0
					]
				}
			},
			"name":"phong1",
			"pbrMetallicRoughness":{
				"baseColorFactor":[
					1,
					0,
					0.001426318776793778,
					1
				],
				"metallicFactor":0.3489425778388977,
				"roughnessFactor":0.2567138969898224
			}
		},
		{
			"doubleSided":true,
			"extensions":{
				"KHR_materials_specular":{
					"specularColorFactor":[
						2.0,
						2.0,
						2.0
					]
				}
			},
			"name":"Button_body",
			"pbrMetallicRoughness":{
				"baseColorFactor":[
					0.0719931498169899,
					0.0719931498169899,
					0.0719931498169899,
					1
				],
				"roughnessFactor":0.29154080152511597
			}
		}
	],
	"meshes":[
		{
			"name":"Mesh",
			"primitives":[
				{
					"attributes":{
						"POSITION":0,
						"NORMAL":1,
						"TEXCOORD_0":2
					},
					"indices":3,
					"material":0
				}
			]
		},
		{
			"name":"Mesh.001",
			"primitives":[
				{
					"attributes":{
						"POSITION":4,
						"NORMAL":5,
						"TEXCOORD_0":6
					},
					"indices":7,
					"material":1
				}
			]
		}
	],
	"accessors":[
		{
			"bufferView":0,
			"componentType":5126,
			"count":201,
			"max":[
				1.320868968963623,
				-4.298782825469971,
				3.3630518913269043
			],
			"min":[
				0.9509389996528625,
				-5.543949127197266,
				2.117887020111084
			],
			"type":"VEC3"
		},
		{
			"bufferView":1,
			"componentType":5126,
			"count":201,
			"type":"VEC3"
		},
		{
			"bufferView":2,
			"componentType":5126,
			"count":201,
			"type":"VEC2"
		},
		{
			"bufferView":3,
			"componentType":5123,
			"count":780,
			"type":"SCALAR"
		},
		{
			"bufferView":4,
			"componentType":5126,
			"count":141,
			"max":[
				1.1654994487762451,
				-4.298387050628662,
				3.366766929626465
			],
			"min":[
				0.9134560227394104,
				-5.5509867668151855,
				2.1141679286956787
			],
			"type":"VEC3"
		},
		{
			"bufferView":5,
			"componentType":5126,
			"count":141,
			"type":"VEC3"
		},
		{
			"bufferView":6,
			"componentType":5126,
			"count":141,
			"type":"VEC2"
		},
		{
			"bufferView":7,
			"componentType":5123,
			"count":420,
			"type":"SCALAR"
		}
	],
	"bufferViews":[
		{
			"buffer":0,
			"byteLength":2412,
			"byteOffset":0,
			"target":34962
		},
		{
			"buffer":0,
			"byteLength":2412,
			"byteOffset":2412,
			"target":34962
		},
		{
			"buffer":0,
			"byteLength":1608,
			"byteOffset":4824,
			"target":34962
		},
		{
			"buffer":0,
			"byteLength":1560,
			"byteOffset":6432,
			"target":34963
		},
		{
			"buffer":0,
			"byteLength":1692,
			"byteOffset":7992,
			"target":34962
		},
		{
			"buffer":0,
			"byteLength":1692,
			"byteOffset":9684,
			"target":34962
		},
		{
			"buffer":0,
			"byteLength":1128,
			"byteOffset":11376,
			"target":34962
		},
		{
			"buffer":0,
			"byteLength":840,
			"byteOffset":12504,
			"target":34963
		}
	],
	"buffers":[
		{
			"byteLength":13344,
			"uri":"Button.bin"
		}
	]
}
