{
	"asset":{
		"generator":"Khronos glTF Blender I/O v4.4.55",
		"version":"2.0"
	},
	"extensionsUsed":[
		"KHR_materials_specular"
	],
	"scene":0,
	"scenes":[
		{
			"name":"Scene",
			"nodes":[
				2
			]
		}
	],
	"nodes":[
		{
			"mesh":0,
			"name":"Fry_pan",
			"rotation":[
				-0.70710688829422,
				0,
				0,
				0.7071066498756409
			],
			"scale":[
				100,
				100,
				100
			],
			"translation":[
				0,
				0,
				-0.19999998807907104
			]
		},
		{
			"mesh":1,
			"name":"Steak.001",
			"rotation":[
				0.6055035591125488,
				-0.3651924729347229,
				-0.3651924729347229,
				0.605503499507904
			],
			"scale":[
				0.015871675685048103,
				0.015871675685048103,
				0.015871675685048103
			],
			"translation":[
				0.6668545007705688,
				-0.08152247220277786,
				-1.207228422164917
			]
		},
		{
			"children":[
				0,
				1
			],
			"name":"Steak",
			"rotation":[
				0.7071068286895752,
				0,
				0,
				0.7071068286895752
			],
			"scale":[
				0.009999999776482582,
				0.009999999776482582,
				0.009999999776482582
			]
		}
	],
	"materials":[
		{
			"doubleSided":true,
			"extensions":{
				"KHR_materials_specular":{
					"specularColorFactor":[
						2.0,
						2.0,
						2.0
					]
				}
			},
			"name":"FryPan",
			"normalTexture":{
				"index":0
			},
			"pbrMetallicRoughness":{
				"baseColorTexture":{
					"index":1
				},
				"metallicRoughnessTexture":{
					"index":2
				},
				"roughnessFactor":0.31686994433403015
			}
		},
		{
			"doubleSided":true,
			"extensions":{
				"KHR_materials_specular":{
					"specularColorFactor":[
						2.0,
						2.0,
						2.0
					]
				}
			},
			"name":"Steak1",
			"normalTexture":{
				"index":3
			},
			"pbrMetallicRoughness":{
				"baseColorTexture":{
					"index":4
				},
				"metallicFactor":0.006042301654815674,
				"roughnessFactor":0.2416081726551056
			}
		},
		{
			"doubleSided":true,
			"extensions":{
				"KHR_materials_specular":{
					"specularColorFactor":[
						2.0,
						2.0,
						2.0
					]
				}
			},
			"name":"Mat.1",
			"normalTexture":{
				"index":5
			},
			"pbrMetallicRoughness":{
				"baseColorTexture":{
					"index":6
				},
				"metallicFactor":0,
				"roughnessFactor":0.5527864098548889
			}
		}
	],
	"meshes":[
		{
			"name":"Mesh",
			"primitives":[
				{
					"attributes":{
						"POSITION":0,
						"NORMAL":1,
						"TEXCOORD_0":2
					},
					"indices":3,
					"material":0
				}
			]
		},
		{
			"name":"Mesh.001",
			"primitives":[
				{
					"attributes":{
						"POSITION":4,
						"NORMAL":5,
						"TEXCOORD_0":6
					},
					"indices":7,
					"material":1
				},
				{
					"attributes":{
						"POSITION":8,
						"NORMAL":9,
						"TEXCOORD_0":10
					},
					"indices":11,
					"material":2
				}
			]
		}
	],
	"textures":[
		{
			"sampler":0,
			"source":0
		},
		{
			"sampler":0,
			"source":1
		},
		{
			"sampler":0,
			"source":2
		},
		{
			"sampler":0,
			"source":3
		},
		{
			"sampler":0,
			"source":4
		},
		{
			"sampler":0,
			"source":5
		},
		{
			"sampler":0,
			"source":6
		}
	],
	"images":[
		{
			"mimeType":"image/png",
			"name":"Fry_pan_FryPan_Normal",
			"uri":"Fry_pan_FryPan_Normal.png"
		},
		{
			"mimeType":"image/png",
			"name":"Fry_pan_FryPan_AlbedoTransparency",
			"uri":"Fry_pan_FryPan_AlbedoTransparency.png"
		},
		{
			"mimeType":"image/png",
			"name":"Fry_pan_FryPan_MetallicSmoothness",
			"uri":"Fry_pan_FryPan_MetallicSmoothness.png"
		},
		{
			"mimeType":"image/png",
			"name":"Fry_pan_Steak_Normal",
			"uri":"Fry_pan_Steak_Normal.png"
		},
		{
			"mimeType":"image/png",
			"name":"Fry_pan_Steak_AlbedoTransparency",
			"uri":"Fry_pan_Steak_AlbedoTransparency.png"
		},
		{
			"mimeType":"image/png",
			"name":"Fry_pan_Steak_side_Normal",
			"uri":"Fry_pan_Steak_side_Normal.png"
		},
		{
			"mimeType":"image/png",
			"name":"Fry_pan_Steak_side_AlbedoTransparency",
			"uri":"Fry_pan_Steak_side_AlbedoTransparency.png"
		}
	],
	"accessors":[
		{
			"bufferView":0,
			"componentType":5126,
			"count":867,
			"max":[
				0.14000000059604645,
				0.05725925788283348,
				0.34911227226257324
			],
			"min":[
				-0.14000000059604645,
				-0.002555159153416753,
				-0.14000000059604645
			],
			"type":"VEC3"
		},
		{
			"bufferView":1,
			"componentType":5126,
			"count":867,
			"type":"VEC3"
		},
		{
			"bufferView":2,
			"componentType":5126,
			"count":867,
			"type":"VEC2"
		},
		{
			"bufferView":3,
			"componentType":5123,
			"count":2838,
			"type":"SCALAR"
		},
		{
			"bufferView":4,
			"componentType":5126,
			"count":242,
			"max":[
				298.38128662109375,
				64.80000305175781,
				446.7973937988281
			],
			"min":[
				-362.1051940917969,
				0,
				-446.1863098144531
			],
			"type":"VEC3"
		},
		{
			"bufferView":5,
			"componentType":5126,
			"count":242,
			"type":"VEC3"
		},
		{
			"bufferView":6,
			"componentType":5126,
			"count":242,
			"type":"VEC2"
		},
		{
			"bufferView":7,
			"componentType":5123,
			"count":690,
			"type":"SCALAR"
		},
		{
			"bufferView":8,
			"componentType":5126,
			"count":714,
			"max":[
				323.2080993652344,
				64.80000305175781,
				471.6178894042969
			],
			"min":[
				-386.9267578125,
				0,
				-471.0124206542969
			],
			"type":"VEC3"
		},
		{
			"bufferView":9,
			"componentType":5126,
			"count":714,
			"type":"VEC3"
		},
		{
			"bufferView":10,
			"componentType":5126,
			"count":714,
			"type":"VEC2"
		},
		{
			"bufferView":11,
			"componentType":5123,
			"count":3510,
			"type":"SCALAR"
		}
	],
	"bufferViews":[
		{
			"buffer":0,
			"byteLength":10404,
			"byteOffset":0,
			"target":34962
		},
		{
			"buffer":0,
			"byteLength":10404,
			"byteOffset":10404,
			"target":34962
		},
		{
			"buffer":0,
			"byteLength":6936,
			"byteOffset":20808,
			"target":34962
		},
		{
			"buffer":0,
			"byteLength":5676,
			"byteOffset":27744,
			"target":34963
		},
		{
			"buffer":0,
			"byteLength":2904,
			"byteOffset":33420,
			"target":34962
		},
		{
			"buffer":0,
			"byteLength":2904,
			"byteOffset":36324,
			"target":34962
		},
		{
			"buffer":0,
			"byteLength":1936,
			"byteOffset":39228,
			"target":34962
		},
		{
			"buffer":0,
			"byteLength":1380,
			"byteOffset":41164,
			"target":34963
		},
		{
			"buffer":0,
			"byteLength":8568,
			"byteOffset":42544,
			"target":34962
		},
		{
			"buffer":0,
			"byteLength":8568,
			"byteOffset":51112,
			"target":34962
		},
		{
			"buffer":0,
			"byteLength":5712,
			"byteOffset":59680,
			"target":34962
		},
		{
			"buffer":0,
			"byteLength":7020,
			"byteOffset":65392,
			"target":34963
		}
	],
	"samplers":[
		{
			"magFilter":9729,
			"minFilter":9987
		}
	],
	"buffers":[
		{
			"byteLength":72412,
			"uri":"Untitled.bin"
		}
	]
}
