{
	"asset":{
		"generator":"Khronos glTF Blender I/O v4.4.56",
		"version":"2.0"
	},
	"scene":0,
	"scenes":[
		{
			"name":"Scene",
			"nodes":[
				10
			]
		}
	],
	"nodes":[
		{
			"mesh":0,
			"name":"Cube_LP__0"
		},
		{
			"children":[
				0
			],
			"name":"Cube_LP",
			"rotation":[
				-0.70710688829422,
				0,
				0,
				0.7071066498756409
			],
			"scale":[
				100,
				99.99999237060547,
				99.99999237060547
			],
			"translation":[
				-31.61536979675293,
				160.73085021972656,
				13.134092330932617
			]
		},
		{
			"mesh":1,
			"name":"Cylinder_LP__0"
		},
		{
			"children":[
				2
			],
			"name":"Cylinder_LP",
			"rotation":[
				-0.02758936956524849,
				0,
				0,
				0.9996193647384644
			],
			"scale":[
				100,
				99.99999237060547,
				99.99999237060547
			],
			"translation":[
				-31.615373611450195,
				208.10446166992188,
				-93.61932373046875
			]
		},
		{
			"mesh":2,
			"name":"Cylinderrr_LP__0"
		},
		{
			"children":[
				4
			],
			"name":"Cylinderrr_LP",
			"rotation":[
				-0.70710688829422,
				0,
				0,
				0.7071066498756409
			],
			"scale":[
				100,
				99.99999237060547,
				99.99999237060547
			],
			"translation":[
				-31.615373611450195,
				132.81578063964844,
				3.857863664627075
			]
		},
		{
			"mesh":3,
			"name":"Plane_LP__0"
		},
		{
			"children":[
				6
			],
			"name":"Plane_LP",
			"rotation":[
				-0.5,
				0.5000000596046448,
				-0.5,
				0.4999999403953552
			],
			"scale":[
				99.99999237060547,
				99.99999237060547,
				100
			],
			"translation":[
				-31.615373611450195,
				-80.29440307617188,
				10.608912467956543
			]
		},
		{
			"children":[
				1,
				3,
				5,
				7
			],
			"name":"RootNode"
		},
		{
			"children":[
				8
			],
			"name":"39998676c0aa479182611443a6af272b.fbx",
			"rotation":[
				0.70710688829422,
				0,
				0,
				0.7071066498756409
			],
			"scale":[
				0.009999999776482582,
				0.010000000707805157,
				0.010000000707805157
			]
		},
		{
			"children":[
				9
			],
			"name":"Sketchfab_model",
			"rotation":[
				-0.70710688829422,
				0,
				0,
				0.7071066498756409
			]
		}
	],
	"materials":[
		{
			"doubleSided":true,
			"name":"Scene_-_Root",
			"normalTexture":{
				"index":0
			},
			"pbrMetallicRoughness":{
				"baseColorTexture":{
					"index":1
				},
				"metallicRoughnessTexture":{
					"index":2
				}
			}
		}
	],
	"meshes":[
		{
			"name":"Cube_LP__0",
			"primitives":[
				{
					"attributes":{
						"POSITION":0,
						"NORMAL":1,
						"TEXCOORD_0":2
					},
					"indices":3,
					"material":0
				}
			]
		},
		{
			"name":"Cylinder_LP__0",
			"primitives":[
				{
					"attributes":{
						"POSITION":4,
						"NORMAL":5,
						"TEXCOORD_0":6
					},
					"indices":7,
					"material":0
				}
			]
		},
		{
			"name":"Cylinderrr_LP__0",
			"primitives":[
				{
					"attributes":{
						"POSITION":8,
						"NORMAL":9,
						"TEXCOORD_0":10
					},
					"indices":11,
					"material":0
				}
			]
		},
		{
			"name":"Plane_LP__0",
			"primitives":[
				{
					"attributes":{
						"POSITION":12,
						"NORMAL":13,
						"TEXCOORD_0":14
					},
					"indices":15,
					"material":0
				}
			]
		}
	],
	"textures":[
		{
			"sampler":0,
			"source":0
		},
		{
			"sampler":0,
			"source":1
		},
		{
			"sampler":0,
			"source":2
		}
	],
	"images":[
		{
			"mimeType":"image/png",
			"name":"Scene_-_Root_normal",
			"uri":"Scene_-_Root_normal.png"
		},
		{
			"mimeType":"image/png",
			"name":"Scene_-_Root_baseColor",
			"uri":"Scene_-_Root_baseColor.png"
		},
		{
			"mimeType":"image/png",
			"name":"Scene_-_Root_metallicRoughness",
			"uri":"Scene_-_Root_metallicRoughness.png"
		}
	],
	"accessors":[
		{
			"bufferView":0,
			"componentType":5126,
			"count":1310,
			"max":[
				0.17475566267967224,
				0.9874520301818848,
				0.6360912322998047
			],
			"min":[
				-0.17475566267967224,
				-0.6858066320419312,
				-0.5030811429023743
			],
			"type":"VEC3"
		},
		{
			"bufferView":1,
			"componentType":5126,
			"count":1310,
			"type":"VEC3"
		},
		{
			"bufferView":2,
			"componentType":5126,
			"count":1310,
			"type":"VEC2"
		},
		{
			"bufferView":3,
			"componentType":5123,
			"count":1968,
			"type":"SCALAR"
		},
		{
			"bufferView":4,
			"componentType":5126,
			"count":1390,
			"max":[
				0.15762199461460114,
				0.15769623219966888,
				0.10922281444072723
			],
			"min":[
				-0.15762199461460114,
				-0.15769623219966888,
				-0.11780106276273727
			],
			"type":"VEC3"
		},
		{
			"bufferView":5,
			"componentType":5126,
			"count":1390,
			"type":"VEC3"
		},
		{
			"bufferView":6,
			"componentType":5126,
			"count":1390,
			"type":"VEC2"
		},
		{
			"bufferView":7,
			"componentType":5123,
			"count":2082,
			"type":"SCALAR"
		},
		{
			"bufferView":8,
			"componentType":5126,
			"count":1671,
			"max":[
				0.33596324920654297,
				0.33596324920654297,
				0.22403796017169952
			],
			"min":[
				-0.33596324920654297,
				-0.33596324920654297,
				-0.22807630896568298
			],
			"type":"VEC3"
		},
		{
			"bufferView":9,
			"componentType":5126,
			"count":1671,
			"type":"VEC3"
		},
		{
			"bufferView":10,
			"componentType":5126,
			"count":1671,
			"type":"VEC2"
		},
		{
			"bufferView":11,
			"componentType":5123,
			"count":2676,
			"type":"SCALAR"
		},
		{
			"bufferView":12,
			"componentType":5126,
			"count":1992,
			"max":[
				1.502540946006775,
				0.9084826707839966,
				0.4020647406578064
			],
			"min":[
				-1.952492117881775,
				-0.8352513909339905,
				-0.40206465125083923
			],
			"type":"VEC3"
		},
		{
			"bufferView":13,
			"componentType":5126,
			"count":1992,
			"type":"VEC3"
		},
		{
			"bufferView":14,
			"componentType":5126,
			"count":1992,
			"type":"VEC2"
		},
		{
			"bufferView":15,
			"componentType":5123,
			"count":2994,
			"type":"SCALAR"
		}
	],
	"bufferViews":[
		{
			"buffer":0,
			"byteLength":15720,
			"byteOffset":0,
			"target":34962
		},
		{
			"buffer":0,
			"byteLength":15720,
			"byteOffset":15720,
			"target":34962
		},
		{
			"buffer":0,
			"byteLength":10480,
			"byteOffset":31440,
			"target":34962
		},
		{
			"buffer":0,
			"byteLength":3936,
			"byteOffset":41920,
			"target":34963
		},
		{
			"buffer":0,
			"byteLength":16680,
			"byteOffset":45856,
			"target":34962
		},
		{
			"buffer":0,
			"byteLength":16680,
			"byteOffset":62536,
			"target":34962
		},
		{
			"buffer":0,
			"byteLength":11120,
			"byteOffset":79216,
			"target":34962
		},
		{
			"buffer":0,
			"byteLength":4164,
			"byteOffset":90336,
			"target":34963
		},
		{
			"buffer":0,
			"byteLength":20052,
			"byteOffset":94500,
			"target":34962
		},
		{
			"buffer":0,
			"byteLength":20052,
			"byteOffset":114552,
			"target":34962
		},
		{
			"buffer":0,
			"byteLength":13368,
			"byteOffset":134604,
			"target":34962
		},
		{
			"buffer":0,
			"byteLength":5352,
			"byteOffset":147972,
			"target":34963
		},
		{
			"buffer":0,
			"byteLength":23904,
			"byteOffset":153324,
			"target":34962
		},
		{
			"buffer":0,
			"byteLength":23904,
			"byteOffset":177228,
			"target":34962
		},
		{
			"buffer":0,
			"byteLength":15936,
			"byteOffset":201132,
			"target":34962
		},
		{
			"buffer":0,
			"byteLength":5988,
			"byteOffset":217068,
			"target":34963
		}
	],
	"samplers":[
		{
			"magFilter":9729,
			"minFilter":9987
		}
	],
	"buffers":[
		{
			"byteLength":223056,
			"uri":"Spray.bin"
		}
	]
}
