{
	"asset":{
		"generator":"Khronos glTF Blender I/O v4.4.56",
		"version":"2.0"
	},
	"extensionsUsed":[
		"KHR_materials_specular"
	],
	"scene":0,
	"scenes":[
		{
			"name":"Scene",
			"nodes":[
				0,
				3,
				4,
				5,
				6,
				7,
				8,
				9
			]
		}
	],
	"nodes":[
		{
			"mesh":0,
			"name":"Table",
			"rotation":[
				0.70710688829422,
				0,
				0,
				0.7071066498756409
			],
			"scale":[
				0.009999999776482582,
				0.010000000707805157,
				0.010000000707805157
			],
			"translation":[
				0,
				0.09426428377628326,
				0
			]
		},
		{
			"mesh":1,
			"name":"_holes_laser_pointer",
			"rotation":[
				0,
				-0.7071066498756409,
				0,
				0.70710688829422
			],
			"translation":[
				-24.748754501342773,
				134.05677795410156,
				-98.76904296875
			]
		},
		{
			"mesh":2,
			"name":"Button_Cyrcle_1_Button1",
			"rotation":[
				0,
				-0.7071066498756409,
				0,
				0.70710688829422
			],
			"translation":[
				-24.748754501342773,
				134.05677795410156,
				-98.76904296875
			]
		},
		{
			"children":[
				1,
				2
			],
			"name":"_holeLaser_Pointer.002",
			"rotation":[
				0.70710688829422,
				0,
				0,
				0.7071066498756409
			],
			"scale":[
				0.009999999776482582,
				0.010000000707805157,
				0.010000000707805157
			],
			"translation":[
				0,
				0.20711924135684967,
				0.28995203971862793
			]
		},
		{
			"mesh":3,
			"name":"st_set_Hatthylla_ljus_penna_bok_matta_vaska:polySurface170",
			"rotation":[
				0.70710688829422,
				0,
				0,
				0.7071066498756409
			],
			"scale":[
				0.13994580507278442,
				0.13994579017162323,
				0.032939013093709946
			],
			"translation":[
				-3.6291892528533936,
				-0.13089832663536072,
				0.4606606066226959
			]
		},
		{
			"mesh":4,
			"name":"pTorus2",
			"rotation":[
				0.7071070671081543,
				0,
				0,
				0.7071065306663513
			],
			"scale":[
				0.07790698856115341,
				0.07790699601173401,
				0.07790699601173401
			],
			"translation":[
				-0.18552234768867493,
				0.00672517204657197,
				0
			]
		},
		{
			"mesh":5,
			"name":"sweep1",
			"rotation":[
				0.70710688829422,
				0,
				0,
				0.7071066498756409
			],
			"scale":[
				0.009999999776482582,
				0.009999998845160007,
				0.009999998845160007
			],
			"translation":[
				0.04603585600852966,
				0,
				0
			]
		},
		{
			"mesh":6,
			"name":"pTorus3",
			"rotation":[
				0.7071070671081543,
				0,
				0,
				0.7071065306663513
			],
			"scale":[
				0.07790698856115341,
				0.07790699601173401,
				0.07790699601173401
			],
			"translation":[
				0.07000000029802322,
				0.00672517204657197,
				0
			]
		},
		{
			"mesh":7,
			"name":"Plane",
			"rotation":[
				0,
				0.7071066498756409,
				0,
				0.70710688829422
			],
			"scale":[
				34.30638122558594,
				11.527663230895996,
				8.482278823852539
			],
			"translation":[
				0.36400890350341797,
				0.0012617111206054688,
				0.7793998718261719
			]
		},
		{
			"mesh":8,
			"name":"pSphere1",
			"rotation":[
				0.03747536987066269,
				-0.7061131596565247,
				0.7061128616333008,
				0.037475381046533585
			],
			"scale":[
				461.00537109375,
				461.0052795410156,
				461.0052795410156
			]
		}
	],
	"materials":[
		{
			"doubleSided":true,
			"extensions":{
				"KHR_materials_specular":{
					"specularColorFactor":[
						2.0,
						2.0,
						2.0
					]
				}
			},
			"name":"Material.002",
			"pbrMetallicRoughness":{
				"baseColorTexture":{
					"index":0
				},
				"metallicFactor":0,
				"metallicRoughnessTexture":{
					"index":1
				}
			}
		},
		{
			"doubleSided":true,
			"emissiveFactor":[
				1,
				1,
				1
			],
			"emissiveTexture":{
				"index":2
			},
			"extensions":{
				"KHR_materials_specular":{
					"specularColorFactor":[
						2.0,
						2.0,
						2.0
					]
				}
			},
			"name":"DefaultMaterial.004",
			"normalTexture":{
				"index":3
			},
			"pbrMetallicRoughness":{
				"baseColorTexture":{
					"index":4
				},
				"metallicFactor":0,
				"roughnessFactor":0.5
			}
		},
		{
			"doubleSided":true,
			"extensions":{
				"KHR_materials_specular":{
					"specularColorFactor":[
						2.0,
						2.0,
						2.0
					]
				}
			},
			"name":"standardSurface2.002",
			"pbrMetallicRoughness":{
				"baseColorFactor":[
					0.800000011920929,
					0.800000011920929,
					0.800000011920929,
					1
				],
				"metallicFactor":0.050000011920928955,
				"roughnessFactor":0.20369552075862885
			}
		},
		{
			"doubleSided":true,
			"extensions":{
				"KHR_materials_specular":{
					"specularColorFactor":[
						2.0,
						2.0,
						2.0
					]
				}
			},
			"name":"Button_Cyrcle_1.003",
			"pbrMetallicRoughness":{
				"baseColorTexture":{
					"index":5
				},
				"metallicRoughnessTexture":{
					"index":6
				},
				"roughnessFactor":0
			}
		},
		{
			"doubleSided":true,
			"name":"standardSurface1",
			"pbrMetallicRoughness":{
				"baseColorTexture":{
					"index":7
				},
				"metallicFactor":0.3199999928474426,
				"roughnessFactor":0.5527864098548889
			}
		},
		{
			"doubleSided":true,
			"name":"lambert2",
			"pbrMetallicRoughness":{
				"baseColorFactor":[
					0.5,
					0.3464275896549225,
					0.15200001001358032,
					1
				],
				"metallicFactor":0,
				"roughnessFactor":0.5527864098548889
			}
		},
		{
			"alphaMode":"BLEND",
			"doubleSided":true,
			"name":"Material.003",
			"pbrMetallicRoughness":{
				"baseColorFactor":[
					0.800000011920929,
					0.800000011920929,
					0.800000011920929,
					0.15272729098796844
				],
				"metallicFactor":0,
				"roughnessFactor":0.0490909218788147
			}
		},
		{
			"doubleSided":true,
			"name":"Material.004",
			"pbrMetallicRoughness":{
				"baseColorFactor":[
					0.007751617580652237,
					0.007751617580652237,
					0.007751617580652237,
					1
				],
				"metallicFactor":0
			}
		},
		{
			"doubleSided":true,
			"emissiveFactor":[
				0.09999999403953552,
				0.09999999403953552,
				0.09999999403953552
			],
			"emissiveTexture":{
				"index":8
			},
			"name":"surfaceShader1",
			"pbrMetallicRoughness":{
				"baseColorFactor":[
					0,
					0,
					0,
					1
				]
			}
		}
	],
	"meshes":[
		{
			"name":"Mesh.006",
			"primitives":[
				{
					"attributes":{
						"POSITION":0,
						"NORMAL":1,
						"TEXCOORD_0":2
					},
					"indices":3,
					"material":0
				}
			]
		},
		{
			"name":"Mesh.014",
			"primitives":[
				{
					"attributes":{
						"POSITION":4,
						"NORMAL":5,
						"TEXCOORD_0":6,
						"TEXCOORD_1":7
					},
					"indices":8,
					"material":1
				},
				{
					"attributes":{
						"POSITION":9,
						"NORMAL":10,
						"TEXCOORD_0":11,
						"TEXCOORD_1":12
					},
					"indices":13,
					"material":2
				},
				{
					"attributes":{
						"POSITION":14,
						"NORMAL":15,
						"TEXCOORD_0":16,
						"TEXCOORD_1":17
					},
					"indices":18,
					"material":3
				}
			]
		},
		{
			"name":"Mesh.011",
			"primitives":[
				{
					"attributes":{
						"POSITION":19,
						"NORMAL":20,
						"TEXCOORD_0":21
					},
					"indices":22,
					"material":3
				}
			]
		},
		{
			"name":"Mesh",
			"primitives":[
				{
					"attributes":{
						"POSITION":23,
						"NORMAL":24,
						"TEXCOORD_0":25
					},
					"indices":26,
					"material":4
				}
			]
		},
		{
			"name":"Mesh.008",
			"primitives":[
				{
					"attributes":{
						"POSITION":27,
						"NORMAL":28,
						"TEXCOORD_0":29
					},
					"indices":30,
					"material":5
				}
			]
		},
		{
			"name":"Mesh.010",
			"primitives":[
				{
					"attributes":{
						"POSITION":31,
						"NORMAL":32,
						"TEXCOORD_0":33
					},
					"indices":34,
					"material":6
				}
			]
		},
		{
			"name":"Mesh.016",
			"primitives":[
				{
					"attributes":{
						"POSITION":35,
						"NORMAL":36,
						"TEXCOORD_0":37
					},
					"indices":30,
					"material":5
				}
			]
		},
		{
			"name":"Plane",
			"primitives":[
				{
					"attributes":{
						"POSITION":38,
						"NORMAL":39,
						"TEXCOORD_0":40
					},
					"indices":41,
					"material":7
				}
			]
		},
		{
			"name":"Mesh.018",
			"primitives":[
				{
					"attributes":{
						"POSITION":42,
						"NORMAL":43,
						"TEXCOORD_0":44
					},
					"indices":45,
					"material":8
				}
			]
		}
	],
	"textures":[
		{
			"sampler":0,
			"source":0
		},
		{
			"sampler":0,
			"source":1
		},
		{
			"sampler":0,
			"source":2
		},
		{
			"sampler":0,
			"source":3
		},
		{
			"sampler":0,
			"source":4
		},
		{
			"sampler":0,
			"source":5
		},
		{
			"sampler":0,
			"source":6
		},
		{
			"sampler":0,
			"source":7
		},
		{
			"sampler":0,
			"source":8
		}
	],
	"images":[
		{
			"mimeType":"image/png",
			"name":"Albedo",
			"uri":"Albedo.png"
		},
		{
			"mimeType":"image/png",
			"name":"Rughness",
			"uri":"Rughness.png"
		},
		{
			"mimeType":"image/jpeg",
			"name":"Image_2",
			"uri":"Image_2.jpg"
		},
		{
			"mimeType":"image/png",
			"name":"Image_3",
			"uri":"Image_3.png"
		},
		{
			"mimeType":"image/jpeg",
			"name":"Image_0",
			"uri":"Image_0.jpg"
		},
		{
			"mimeType":"image/png",
			"name":"Button_Cyrcle_1_Base_Red",
			"uri":"Button_Cyrcle_1_Base_Red.png"
		},
		{
			"mimeType":"image/png",
			"name":"Button_Cyrcle_1_Metallic",
			"uri":"Button_Cyrcle_1_Metallic.png"
		},
		{
			"mimeType":"image/png",
			"name":"1st_set_Hatthylla_ljus_penna_bok_matta_vas",
			"uri":"1st_set_Hatthylla_ljus_penna_bok_matta_vas.png"
		},
		{
			"mimeType":"image/jpeg",
			"name":"ParkingGarage01_bg",
			"uri":"ParkingGarage01_bg.jpg"
		}
	],
	"accessors":[
		{
			"bufferView":0,
			"componentType":5126,
			"count":636,
			"max":[
				240.31822204589844,
				526.3824462890625,
				9.910561561584473
			],
			"min":[
				-240.31822204589844,
				-526.3824462890625,
				-9.910561561584473
			],
			"type":"VEC3"
		},
		{
			"bufferView":1,
			"componentType":5126,
			"count":636,
			"type":"VEC3"
		},
		{
			"bufferView":2,
			"componentType":5126,
			"count":636,
			"type":"VEC2"
		},
		{
			"bufferView":3,
			"componentType":5123,
			"count":2868,
			"type":"SCALAR"
		},
		{
			"bufferView":4,
			"componentType":5126,
			"count":4245,
			"max":[
				62.421661376953125,
				104.1407241821289,
				-3.905109405517578
			],
			"min":[
				-62.420963287353516,
				67.32804870605469,
				-37.19994354248047
			],
			"type":"VEC3"
		},
		{
			"bufferView":5,
			"componentType":5126,
			"count":4245,
			"type":"VEC3"
		},
		{
			"bufferView":6,
			"componentType":5126,
			"count":4245,
			"type":"VEC2"
		},
		{
			"bufferView":7,
			"componentType":5126,
			"count":4245,
			"type":"VEC2"
		},
		{
			"bufferView":8,
			"componentType":5123,
			"count":19818,
			"type":"SCALAR"
		},
		{
			"bufferView":9,
			"componentType":5126,
			"count":194,
			"max":[
				82.97108459472656,
				333.82977294921875,
				0.7726764678955078
			],
			"min":[
				-82.97108459472656,
				72.12870788574219,
				-46.87529754638672
			],
			"type":"VEC3"
		},
		{
			"bufferView":10,
			"componentType":5126,
			"count":194,
			"type":"VEC3"
		},
		{
			"bufferView":11,
			"componentType":5126,
			"count":194,
			"type":"VEC2"
		},
		{
			"bufferView":12,
			"componentType":5126,
			"count":194,
			"type":"VEC2"
		},
		{
			"bufferView":13,
			"componentType":5123,
			"count":756,
			"type":"SCALAR"
		},
		{
			"bufferView":14,
			"componentType":5126,
			"count":340,
			"max":[
				14.470443725585938,
				133.7220916748047,
				-46.16588592529297
			],
			"min":[
				-14.470443725585938,
				104.78120422363281,
				-48.517337799072266
			],
			"type":"VEC3"
		},
		{
			"bufferView":15,
			"componentType":5126,
			"count":340,
			"type":"VEC3"
		},
		{
			"bufferView":16,
			"componentType":5126,
			"count":340,
			"type":"VEC2"
		},
		{
			"bufferView":17,
			"componentType":5126,
			"count":340,
			"type":"VEC2"
		},
		{
			"bufferView":18,
			"componentType":5123,
			"count":1728,
			"type":"SCALAR"
		},
		{
			"bufferView":19,
			"componentType":5126,
			"count":133,
			"max":[
				10.852832794189453,
				130.1044921875,
				-46.16587829589844
			],
			"min":[
				-10.852832794189453,
				108.39881896972656,
				-53.40110397338867
			],
			"type":"VEC3"
		},
		{
			"bufferView":20,
			"componentType":5126,
			"count":133,
			"type":"VEC3"
		},
		{
			"bufferView":21,
			"componentType":5126,
			"count":133,
			"type":"VEC2"
		},
		{
			"bufferView":22,
			"componentType":5123,
			"count":480,
			"type":"SCALAR"
		},
		{
			"bufferView":23,
			"componentType":5126,
			"count":249,
			"max":[
				26.597002029418945,
				-3.0858426094055176,
				-4.074610233306885
			],
			"min":[
				26.206777572631836,
				-3.4760663509368896,
				-4.496518135070801
			],
			"type":"VEC3"
		},
		{
			"bufferView":24,
			"componentType":5126,
			"count":249,
			"type":"VEC3"
		},
		{
			"bufferView":25,
			"componentType":5126,
			"count":249,
			"type":"VEC2"
		},
		{
			"bufferView":26,
			"componentType":5123,
			"count":801,
			"type":"SCALAR"
		},
		{
			"bufferView":27,
			"componentType":5126,
			"count":102,
			"max":[
				1.0499999523162842,
				1.0499999523162842,
				0.08660255372524261
			],
			"min":[
				-1.0499999523162842,
				-1.0499998331069946,
				-0.08660254627466202
			],
			"type":"VEC3"
		},
		{
			"bufferView":28,
			"componentType":5126,
			"count":102,
			"type":"VEC3"
		},
		{
			"bufferView":29,
			"componentType":5126,
			"count":102,
			"type":"VEC2"
		},
		{
			"bufferView":30,
			"componentType":5123,
			"count":480,
			"type":"SCALAR"
		},
		{
			"bufferView":31,
			"componentType":5126,
			"count":324,
			"max":[
				48.67746353149414,
				1.288015365600586,
				0.017707794904708862
			],
			"min":[
				11.876704216003418,
				-0.09894821792840958,
				-42.854705810546875
			],
			"type":"VEC3"
		},
		{
			"bufferView":32,
			"componentType":5126,
			"count":324,
			"type":"VEC3"
		},
		{
			"bufferView":33,
			"componentType":5126,
			"count":324,
			"type":"VEC2"
		},
		{
			"bufferView":34,
			"componentType":5123,
			"count":1680,
			"type":"SCALAR"
		},
		{
			"bufferView":35,
			"componentType":5126,
			"count":102,
			"max":[
				1.0499999523162842,
				1.0499999523162842,
				0.08660255372524261
			],
			"min":[
				-1.0499999523162842,
				-1.0499998331069946,
				-0.08660254627466202
			],
			"type":"VEC3"
		},
		{
			"bufferView":36,
			"componentType":5126,
			"count":102,
			"type":"VEC3"
		},
		{
			"bufferView":37,
			"componentType":5126,
			"count":102,
			"type":"VEC2"
		},
		{
			"bufferView":38,
			"componentType":5126,
			"count":36,
			"max":[
				1,
				1.528364658355713,
				1.7214936017990112
			],
			"min":[
				-1,
				0,
				-1.0438258647918701
			],
			"type":"VEC3"
		},
		{
			"bufferView":39,
			"componentType":5126,
			"count":36,
			"type":"VEC3"
		},
		{
			"bufferView":40,
			"componentType":5126,
			"count":36,
			"type":"VEC2"
		},
		{
			"bufferView":41,
			"componentType":5123,
			"count":102,
			"type":"SCALAR"
		},
		{
			"bufferView":42,
			"componentType":5126,
			"count":439,
			"max":[
				1,
				1.0000001192092896,
				1
			],
			"min":[
				-1.000000238418579,
				-1.0000004768371582,
				-1
			],
			"type":"VEC3"
		},
		{
			"bufferView":43,
			"componentType":5126,
			"count":439,
			"type":"VEC3"
		},
		{
			"bufferView":44,
			"componentType":5126,
			"count":439,
			"type":"VEC2"
		},
		{
			"bufferView":45,
			"componentType":5123,
			"count":2280,
			"type":"SCALAR"
		}
	],
	"bufferViews":[
		{
			"buffer":0,
			"byteLength":7632,
			"byteOffset":0,
			"target":34962
		},
		{
			"buffer":0,
			"byteLength":7632,
			"byteOffset":7632,
			"target":34962
		},
		{
			"buffer":0,
			"byteLength":5088,
			"byteOffset":15264,
			"target":34962
		},
		{
			"buffer":0,
			"byteLength":5736,
			"byteOffset":20352,
			"target":34963
		},
		{
			"buffer":0,
			"byteLength":50940,
			"byteOffset":26088,
			"target":34962
		},
		{
			"buffer":0,
			"byteLength":50940,
			"byteOffset":77028,
			"target":34962
		},
		{
			"buffer":0,
			"byteLength":33960,
			"byteOffset":127968,
			"target":34962
		},
		{
			"buffer":0,
			"byteLength":33960,
			"byteOffset":161928,
			"target":34962
		},
		{
			"buffer":0,
			"byteLength":39636,
			"byteOffset":195888,
			"target":34963
		},
		{
			"buffer":0,
			"byteLength":2328,
			"byteOffset":235524,
			"target":34962
		},
		{
			"buffer":0,
			"byteLength":2328,
			"byteOffset":237852,
			"target":34962
		},
		{
			"buffer":0,
			"byteLength":1552,
			"byteOffset":240180,
			"target":34962
		},
		{
			"buffer":0,
			"byteLength":1552,
			"byteOffset":241732,
			"target":34962
		},
		{
			"buffer":0,
			"byteLength":1512,
			"byteOffset":243284,
			"target":34963
		},
		{
			"buffer":0,
			"byteLength":4080,
			"byteOffset":244796,
			"target":34962
		},
		{
			"buffer":0,
			"byteLength":4080,
			"byteOffset":248876,
			"target":34962
		},
		{
			"buffer":0,
			"byteLength":2720,
			"byteOffset":252956,
			"target":34962
		},
		{
			"buffer":0,
			"byteLength":2720,
			"byteOffset":255676,
			"target":34962
		},
		{
			"buffer":0,
			"byteLength":3456,
			"byteOffset":258396,
			"target":34963
		},
		{
			"buffer":0,
			"byteLength":1596,
			"byteOffset":261852,
			"target":34962
		},
		{
			"buffer":0,
			"byteLength":1596,
			"byteOffset":263448,
			"target":34962
		},
		{
			"buffer":0,
			"byteLength":1064,
			"byteOffset":265044,
			"target":34962
		},
		{
			"buffer":0,
			"byteLength":960,
			"byteOffset":266108,
			"target":34963
		},
		{
			"buffer":0,
			"byteLength":2988,
			"byteOffset":267068,
			"target":34962
		},
		{
			"buffer":0,
			"byteLength":2988,
			"byteOffset":270056,
			"target":34962
		},
		{
			"buffer":0,
			"byteLength":1992,
			"byteOffset":273044,
			"target":34962
		},
		{
			"buffer":0,
			"byteLength":1602,
			"byteOffset":275036,
			"target":34963
		},
		{
			"buffer":0,
			"byteLength":1224,
			"byteOffset":276640,
			"target":34962
		},
		{
			"buffer":0,
			"byteLength":1224,
			"byteOffset":277864,
			"target":34962
		},
		{
			"buffer":0,
			"byteLength":816,
			"byteOffset":279088,
			"target":34962
		},
		{
			"buffer":0,
			"byteLength":960,
			"byteOffset":279904,
			"target":34963
		},
		{
			"buffer":0,
			"byteLength":3888,
			"byteOffset":280864,
			"target":34962
		},
		{
			"buffer":0,
			"byteLength":3888,
			"byteOffset":284752,
			"target":34962
		},
		{
			"buffer":0,
			"byteLength":2592,
			"byteOffset":288640,
			"target":34962
		},
		{
			"buffer":0,
			"byteLength":3360,
			"byteOffset":291232,
			"target":34963
		},
		{
			"buffer":0,
			"byteLength":1224,
			"byteOffset":294592,
			"target":34962
		},
		{
			"buffer":0,
			"byteLength":1224,
			"byteOffset":295816,
			"target":34962
		},
		{
			"buffer":0,
			"byteLength":816,
			"byteOffset":297040,
			"target":34962
		},
		{
			"buffer":0,
			"byteLength":432,
			"byteOffset":297856,
			"target":34962
		},
		{
			"buffer":0,
			"byteLength":432,
			"byteOffset":298288,
			"target":34962
		},
		{
			"buffer":0,
			"byteLength":288,
			"byteOffset":298720,
			"target":34962
		},
		{
			"buffer":0,
			"byteLength":204,
			"byteOffset":299008,
			"target":34963
		},
		{
			"buffer":0,
			"byteLength":5268,
			"byteOffset":299212,
			"target":34962
		},
		{
			"buffer":0,
			"byteLength":5268,
			"byteOffset":304480,
			"target":34962
		},
		{
			"buffer":0,
			"byteLength":3512,
			"byteOffset":309748,
			"target":34962
		},
		{
			"buffer":0,
			"byteLength":4560,
			"byteOffset":313260,
			"target":34963
		}
	],
	"samplers":[
		{
			"magFilter":9729,
			"minFilter":9987
		}
	],
	"buffers":[
		{
			"byteLength":317820,
			"uri":"Light_Experiment.bin"
		}
	]
}
