{
    "asset" : {
        "generator" : "Khronos glTF Blender I/O v3.3.27",
        "version" : "2.0"
    },
    "scene" : 0,
    "scenes" : [
        {
            "name" : "Scene",
            "nodes" : [
                0
            ]
        }
    ],
    "nodes" : [
        {
            "mesh" : 0,
            "name" : "wooden_dock_pole1",
            "rotation" : [
                -1,
                0,
                0,
                7.549789415861596e-08
            ],
            "scale" : [
                0.0007939356146380305,
                0.0007939356146380305,
                0.0007939356146380305
            ],
            "translation" : [
                0,
                0.554802417755127,
                0
            ]
        }
    ],
    "materials" : [
        {
            "doubleSided" : true,
            "name" : "Wooden_Stick",
            "normalTexture" : {
                "index" : 0
            },
            "pbrMetallicRoughness" : {
                "baseColorTexture" : {
                    "index" : 1
                },
                "metallicFactor" : 0,
                "roughnessFactor" : 0.6450151205062866
            }
        },
        {
            "alphaMode" : "BLEND",
            "doubleSided" : true,
            "name" : "_RC_001_LOD1:_RC_001_LOD1_u0_v1",
            "pbrMetallicRoughness" : {
                "baseColorTexture" : {
                    "index" : 2
                },
                "metallicFactor" : 0,
                "roughnessFactor" : 0.5527864098548889
            }
        }
    ],
    "meshes" : [
        {
            "name" : "Mesh.002",
            "primitives" : [
                {
                    "attributes" : {
                        "POSITION" : 0,
                        "NORMAL" : 1,
                        "TEXCOORD_0" : 2
                    },
                    "indices" : 3,
                    "material" : 0
                },
                {
                    "attributes" : {
                        "POSITION" : 4,
                        "NORMAL" : 5,
                        "TEXCOORD_0" : 6
                    },
                    "indices" : 7,
                    "material" : 1
                }
            ]
        }
    ],
    "textures" : [
        {
            "sampler" : 0,
            "source" : 0
        },
        {
            "sampler" : 0,
            "source" : 1
        },
        {
            "sampler" : 0,
            "source" : 2
        }
    ],
    "images" : [
        {
            "mimeType" : "image/png",
            "name" : "wooden_stick_Standardmaterial1_Normal",
            "uri" : "wooden_stick_Standardmaterial1_Normal.png"
        },
        {
            "mimeType" : "image/png",
            "name" : "wooden_stick_Standardmaterial1_BaseColor",
            "uri" : "wooden_stick_Standardmaterial1_BaseColor.png"
        },
        {
            "mimeType" : "image/png",
            "name" : "20240909_RC_001_LOD1_u0_v0_diffuse",
            "uri" : "20240909_RC_001_LOD1_u0_v0_diffuse.png"
        }
    ],
    "accessors" : [
        {
            "bufferView" : 0,
            "componentType" : 5126,
            "count" : 1806,
            "max" : [
                29.1640625,
                314.37890625,
                28.9453125
            ],
            "min" : [
                -29.1640625,
                -314.37890625,
                -28.9453125
            ],
            "type" : "VEC3"
        },
        {
            "bufferView" : 1,
            "componentType" : 5126,
            "count" : 1806,
            "type" : "VEC3"
        },
        {
            "bufferView" : 2,
            "componentType" : 5126,
            "count" : 1806,
            "type" : "VEC2"
        },
        {
            "bufferView" : 3,
            "componentType" : 5123,
            "count" : 1806,
            "type" : "SCALAR"
        },
        {
            "bufferView" : 4,
            "componentType" : 5126,
            "count" : 10118,
            "max" : [
                17783.41015625,
                1212.57763671875,
                17481.9296875
            ],
            "min" : [
                -17781.55859375,
                -779.7886962890625,
                -18083.611328125
            ],
            "type" : "VEC3"
        },
        {
            "bufferView" : 5,
            "componentType" : 5126,
            "count" : 10118,
            "type" : "VEC3"
        },
        {
            "bufferView" : 6,
            "componentType" : 5126,
            "count" : 10118,
            "type" : "VEC2"
        },
        {
            "bufferView" : 7,
            "componentType" : 5123,
            "count" : 39330,
            "type" : "SCALAR"
        }
    ],
    "bufferViews" : [
        {
            "buffer" : 0,
            "byteLength" : 21672,
            "byteOffset" : 0,
            "target" : 34962
        },
        {
            "buffer" : 0,
            "byteLength" : 21672,
            "byteOffset" : 21672,
            "target" : 34962
        },
        {
            "buffer" : 0,
            "byteLength" : 14448,
            "byteOffset" : 43344,
            "target" : 34962
        },
        {
            "buffer" : 0,
            "byteLength" : 3612,
            "byteOffset" : 57792,
            "target" : 34963
        },
        {
            "buffer" : 0,
            "byteLength" : 121416,
            "byteOffset" : 61404,
            "target" : 34962
        },
        {
            "buffer" : 0,
            "byteLength" : 121416,
            "byteOffset" : 182820,
            "target" : 34962
        },
        {
            "buffer" : 0,
            "byteLength" : 80944,
            "byteOffset" : 304236,
            "target" : 34962
        },
        {
            "buffer" : 0,
            "byteLength" : 78660,
            "byteOffset" : 385180,
            "target" : 34963
        }
    ],
    "samplers" : [
        {
            "magFilter" : 9729,
            "minFilter" : 9987
        }
    ],
    "buffers" : [
        {
            "byteLength" : 463840,
            "uri" : "pole.bin"
        }
    ]
}
