{
    "asset" : {
        "generator" : "Khronos glTF Blender I/O v3.3.27",
        "version" : "2.0"
    },
    "extensionsUsed" : [
        "KHR_materials_specular",
        "KHR_materials_ior"
    ],
    "scene" : 0,
    "scenes" : [
        {
            "name" : "Scene",
            "nodes" : [
                0,
                1,
                2,
                3,
                4,
                5,
                6,
                7,
                8
            ]
        }
    ],
    "nodes" : [
        {
            "name" : "Scene"
        },
        {
            "mesh" : 0,
            "name" : "lab_beaker_a",
            "rotation" : [
                -0.9984164237976074,
                0,
                -0.05625559762120247,
                7.293488835102835e-08
            ],
            "scale" : [
                0.014557108283042908,
                0.014557119458913803,
                0.014557117596268654
            ],
            "translation" : [
                -0.11000000685453415,
                0.17699292302131653,
                0
            ]
        },
        {
            "mesh" : 1,
            "name" : "lab_beaker_a1",
            "rotation" : [
                -0.9984164237976074,
                0,
                -0.05625559762120247,
                7.293488835102835e-08
            ],
            "scale" : [
                0.014557108283042908,
                0.014557119458913803,
                0.014557117596268654
            ],
            "translation" : [
                0.07999997586011887,
                0.17699292302131653,
                0
            ]
        },
        {
            "mesh" : 2,
            "name" : "st_set_Hatthylla_ljus_penna_bok_matta_vaska:polySurface170",
            "rotation" : [
                0.70710688829422,
                0,
                0,
                0.7071066498756409
            ],
            "scale" : [
                0.13994580507278442,
                0.13994580507278442,
                0.032939016819000244
            ],
            "translation" : [
                -3.611872673034668,
                -0.14554134011268616,
                0.4579022526741028
            ]
        },
        {
            "mesh" : 3,
            "name" : "polySurface170",
            "rotation" : [
                0.70710688829422,
                0,
                0,
                0.7071066498756409
            ],
            "scale" : [
                0.13994580507278442,
                0.13994580507278442,
                0.032939016819000244
            ],
            "translation" : [
                -3.8085296154022217,
                -0.14554134011268616,
                0.4579022526741028
            ]
        },
        {
            "mesh" : 4,
            "name" : "pTorus1",
            "rotation" : [
                0.7071069478988647,
                0,
                0,
                0.7071065902709961
            ],
            "scale" : [
                0.07790698856115341,
                0.07790699601173401,
                0.07790699601173401
            ],
            "translation" : [
                0.07575368136167526,
                -0.004602763801813126,
                -0.004328222945332527
            ]
        },
        {
            "mesh" : 5,
            "name" : "pTorus2",
            "rotation" : [
                0.7071069478988647,
                0,
                0,
                0.7071065902709961
            ],
            "scale" : [
                0.07790698856115341,
                0.07790699601173401,
                0.07790699601173401
            ],
            "translation" : [
                -0.11053995788097382,
                -0.004602763801813126,
                -0.005132146645337343
            ]
        },
        {
            "mesh" : 6,
            "name" : "lowRes1",
            "rotation" : [
                0.5232699513435364,
                -0.4755930006504059,
                0.47559306025505066,
                0.5232696533203125
            ],
            "scale" : [
                0.021317653357982635,
                0.021317653357982635,
                0.021317649632692337
            ],
            "translation" : [
                0.5070261359214783,
                0.1794586479663849,
                0
            ]
        },
        {
            "mesh" : 7,
            "name" : "sweep1",
            "rotation" : [
                0.70710688829422,
                0,
                0,
                0.7071066498756409
            ],
            "scale" : [
                0.009999999776482582,
                0.009999999776482582,
                0.009999999776482582
            ],
            "translation" : [
                0,
                -0.01132795587182045,
                0
            ]
        }
    ],
    "materials" : [
        {
            "alphaMode" : "BLEND",
            "doubleSided" : true,
            "extensions" : {
                "KHR_materials_specular" : {
                    "specularColorTexture" : {
                        "index" : 0
                    },
                    "specularColorFactor" : [
                        1.999999942779615,
                        1.999999942779615,
                        1.999999942779615
                    ]
                },
                "KHR_materials_ior" : {
                    "ior" : 2.1999988555908203
                }
            },
            "name" : "lab_beaker_a",
            "pbrMetallicRoughness" : {
                "baseColorFactor" : [
                    1,
                    1,
                    1,
                    0.22658611834049225
                ],
                "baseColorTexture" : {
                    "index" : 1
                },
                "metallicFactor" : 0.16918429732322693,
                "roughnessFactor" : 0.04984894394874573
            }
        },
        {
            "doubleSided" : true,
            "extensions" : {
                "KHR_materials_specular" : {
                    "specularColorTexture" : {
                        "index" : 2
                    },
                    "specularColorFactor" : [
                        1.9999999999999998,
                        1.9999999999999998,
                        1.9999999999999998
                    ]
                }
            },
            "name" : "standardSurface1",
            "pbrMetallicRoughness" : {
                "baseColorTexture" : {
                    "index" : 3
                },
                "metallicFactor" : 0.1993957757949829,
                "roughnessFactor" : 0.5527864098548889
            }
        },
        {
            "doubleSided" : true,
            "extensions" : {
                "KHR_materials_specular" : {
                    "specularColorFactor" : [
                        1.9999999999999998,
                        1.9999999999999998,
                        1.9999999999999998
                    ]
                }
            },
            "name" : "lambert2",
            "pbrMetallicRoughness" : {
                "baseColorFactor" : [
                    0.5,
                    0.3464275896549225,
                    0.15200001001358032,
                    1
                ],
                "roughnessFactor" : 0.5527864098548889
            }
        },
        {
            "doubleSided" : true,
            "extensions" : {
                "KHR_materials_specular" : {
                    "specularColorTexture" : {
                        "index" : 4
                    },
                    "specularColorFactor" : [
                        1.9999999999999998,
                        1.9999999999999998,
                        2.1326799479574983
                    ]
                }
            },
            "name" : "standardSurface2",
            "normalTexture" : {
                "index" : 5
            },
            "pbrMetallicRoughness" : {
                "baseColorTexture" : {
                    "index" : 6
                },
                "metallicRoughnessTexture" : {
                    "index" : 7
                },
                "roughnessFactor" : 0.353390634059906
            }
        }
    ],
    "meshes" : [
        {
            "name" : "Mesh.006",
            "primitives" : [
                {
                    "attributes" : {
                        "POSITION" : 0,
                        "NORMAL" : 1,
                        "TEXCOORD_0" : 2
                    },
                    "indices" : 3,
                    "material" : 0
                }
            ]
        },
        {
            "name" : "Mesh.007",
            "primitives" : [
                {
                    "attributes" : {
                        "POSITION" : 4,
                        "NORMAL" : 5,
                        "TEXCOORD_0" : 6
                    },
                    "indices" : 3,
                    "material" : 0
                }
            ]
        },
        {
            "name" : "Mesh.008",
            "primitives" : [
                {
                    "attributes" : {
                        "POSITION" : 7,
                        "NORMAL" : 8,
                        "TEXCOORD_0" : 9
                    },
                    "indices" : 10,
                    "material" : 1
                }
            ]
        },
        {
            "name" : "Mesh.009",
            "primitives" : [
                {
                    "attributes" : {
                        "POSITION" : 11,
                        "NORMAL" : 12,
                        "TEXCOORD_0" : 13
                    },
                    "indices" : 10,
                    "material" : 1
                }
            ]
        },
        {
            "name" : "Mesh.010",
            "primitives" : [
                {
                    "attributes" : {
                        "POSITION" : 14,
                        "NORMAL" : 15,
                        "TEXCOORD_0" : 16
                    },
                    "indices" : 17,
                    "material" : 2
                }
            ]
        },
        {
            "name" : "Mesh.011",
            "primitives" : [
                {
                    "attributes" : {
                        "POSITION" : 18,
                        "NORMAL" : 19,
                        "TEXCOORD_0" : 20
                    },
                    "indices" : 21,
                    "material" : 2
                }
            ]
        },
        {
            "name" : "Mesh.012",
            "primitives" : [
                {
                    "attributes" : {
                        "POSITION" : 22,
                        "NORMAL" : 23,
                        "TEXCOORD_0" : 24
                    },
                    "indices" : 25,
                    "material" : 3
                }
            ]
        },
        {
            "name" : "Mesh.013",
            "primitives" : [
                {
                    "attributes" : {
                        "POSITION" : 26,
                        "NORMAL" : 27,
                        "TEXCOORD_0" : 28
                    },
                    "indices" : 29,
                    "material" : 3
                }
            ]
        }
    ],
    "textures" : [
        {
            "sampler" : 0,
            "source" : 0
        },
        {
            "sampler" : 0,
            "source" : 1
        },
        {
            "sampler" : 0,
            "source" : 2
        },
        {
            "sampler" : 0,
            "source" : 3
        },
        {
            "sampler" : 0,
            "source" : 4
        },
        {
            "sampler" : 0,
            "source" : 5
        },
        {
            "sampler" : 0,
            "source" : 6
        },
        {
            "sampler" : 0,
            "source" : 7
        }
    ],
    "images" : [
        {
            "mimeType" : "image/png",
            "name" : "Image",
            "uri" : "Image.png"
        },
        {
            "mimeType" : "image/png",
            "name" : "lab_beaker_a",
            "uri" : "lab_beaker_a.png"
        },
        {
            "mimeType" : "image/png",
            "name" : "Image",
            "uri" : "Image-1.png"
        },
        {
            "mimeType" : "image/png",
            "name" : "1st_set_Hatthylla_ljus_penna_bok_matta_vas",
            "uri" : "1st_set_Hatthylla_ljus_penna_bok_matta_vas.png"
        },
        {
            "mimeType" : "image/png",
            "name" : "Image",
            "uri" : "Image-2.png"
        },
        {
            "mimeType" : "image/png",
            "name" : "paint can upload_Oxygen_Spray_Normal",
            "uri" : "paint%20can%20upload_Oxygen_Spray_Normal.png"
        },
        {
            "mimeType" : "image/png",
            "name" : "paint can upload_Oxygen_Spray_AlbedoTransparency",
            "uri" : "paint%20can%20upload_Oxygen_Spray_AlbedoTransparency.png"
        },
        {
            "mimeType" : "image/png",
            "name" : "paint can upload_Oxygen_Spray_MetallicSmoothness",
            "uri" : "paint%20can%20upload_Oxygen_Spray_MetallicSmoothness.png"
        }
    ],
    "accessors" : [
        {
            "bufferView" : 0,
            "componentType" : 5126,
            "count" : 498,
            "max" : [
                5.767404079437256,
                12.603716850280762,
                5.258543968200684
            ],
            "min" : [
                -5.269400119781494,
                0,
                -5.258544445037842
            ],
            "type" : "VEC3"
        },
        {
            "bufferView" : 1,
            "componentType" : 5126,
            "count" : 498,
            "type" : "VEC3"
        },
        {
            "bufferView" : 2,
            "componentType" : 5126,
            "count" : 498,
            "type" : "VEC2"
        },
        {
            "bufferView" : 3,
            "componentType" : 5123,
            "count" : 2376,
            "type" : "SCALAR"
        },
        {
            "bufferView" : 4,
            "componentType" : 5126,
            "count" : 498,
            "max" : [
                5.767404079437256,
                12.603716850280762,
                5.258543968200684
            ],
            "min" : [
                -5.269400119781494,
                0,
                -5.258544445037842
            ],
            "type" : "VEC3"
        },
        {
            "bufferView" : 5,
            "componentType" : 5126,
            "count" : 498,
            "type" : "VEC3"
        },
        {
            "bufferView" : 6,
            "componentType" : 5126,
            "count" : 498,
            "type" : "VEC2"
        },
        {
            "bufferView" : 7,
            "componentType" : 5126,
            "count" : 307,
            "max" : [
                26.597002029418945,
                -3.0858426094055176,
                -4.074610233306885
            ],
            "min" : [
                26.206777572631836,
                -3.4760663509368896,
                -4.496518135070801
            ],
            "type" : "VEC3"
        },
        {
            "bufferView" : 8,
            "componentType" : 5126,
            "count" : 307,
            "type" : "VEC3"
        },
        {
            "bufferView" : 9,
            "componentType" : 5126,
            "count" : 307,
            "type" : "VEC2"
        },
        {
            "bufferView" : 10,
            "componentType" : 5123,
            "count" : 801,
            "type" : "SCALAR"
        },
        {
            "bufferView" : 11,
            "componentType" : 5126,
            "count" : 307,
            "max" : [
                26.597002029418945,
                -3.0858426094055176,
                -4.074610233306885
            ],
            "min" : [
                26.206777572631836,
                -3.4760663509368896,
                -4.496518135070801
            ],
            "type" : "VEC3"
        },
        {
            "bufferView" : 12,
            "componentType" : 5126,
            "count" : 307,
            "type" : "VEC3"
        },
        {
            "bufferView" : 13,
            "componentType" : 5126,
            "count" : 307,
            "type" : "VEC2"
        },
        {
            "bufferView" : 14,
            "componentType" : 5126,
            "count" : 140,
            "max" : [
                1.101180911064148,
                1.100000023841858,
                0.08660255372524261
            ],
            "min" : [
                -1.100000023841858,
                -1.0999997854232788,
                -0.17183677852153778
            ],
            "type" : "VEC3"
        },
        {
            "bufferView" : 15,
            "componentType" : 5126,
            "count" : 140,
            "type" : "VEC3"
        },
        {
            "bufferView" : 16,
            "componentType" : 5126,
            "count" : 140,
            "type" : "VEC2"
        },
        {
            "bufferView" : 17,
            "componentType" : 5123,
            "count" : 684,
            "type" : "SCALAR"
        },
        {
            "bufferView" : 18,
            "componentType" : 5126,
            "count" : 119,
            "max" : [
                1.100000023841858,
                1.100000023841858,
                0.08660255372524261
            ],
            "min" : [
                -1.100000023841858,
                -1.0999999046325684,
                -0.08660254627466202
            ],
            "type" : "VEC3"
        },
        {
            "bufferView" : 19,
            "componentType" : 5126,
            "count" : 119,
            "type" : "VEC3"
        },
        {
            "bufferView" : 20,
            "componentType" : 5126,
            "count" : 119,
            "type" : "VEC2"
        },
        {
            "bufferView" : 21,
            "componentType" : 5123,
            "count" : 576,
            "type" : "SCALAR"
        },
        {
            "bufferView" : 22,
            "componentType" : 5126,
            "count" : 1302,
            "max" : [
                3.094245433807373,
                3.046316146850586,
                8.72148609161377
            ],
            "min" : [
                -3.099752426147461,
                -3.1469955444335938,
                -11.389463424682617
            ],
            "type" : "VEC3"
        },
        {
            "bufferView" : 23,
            "componentType" : 5126,
            "count" : 1302,
            "type" : "VEC3"
        },
        {
            "bufferView" : 24,
            "componentType" : 5126,
            "count" : 1302,
            "type" : "VEC2"
        },
        {
            "bufferView" : 25,
            "componentType" : 5123,
            "count" : 5088,
            "type" : "SCALAR"
        },
        {
            "bufferView" : 26,
            "componentType" : 5126,
            "count" : 324,
            "max" : [
                48.67746353149414,
                1.288015365600586,
                0.017707832157611847
            ],
            "min" : [
                11.876704216003418,
                -0.09894821792840958,
                -42.854705810546875
            ],
            "type" : "VEC3"
        },
        {
            "bufferView" : 27,
            "componentType" : 5126,
            "count" : 324,
            "type" : "VEC3"
        },
        {
            "bufferView" : 28,
            "componentType" : 5126,
            "count" : 324,
            "type" : "VEC2"
        },
        {
            "bufferView" : 29,
            "componentType" : 5123,
            "count" : 1680,
            "type" : "SCALAR"
        }
    ],
    "bufferViews" : [
        {
            "buffer" : 0,
            "byteLength" : 5976,
            "byteOffset" : 0,
            "target" : 34962
        },
        {
            "buffer" : 0,
            "byteLength" : 5976,
            "byteOffset" : 5976,
            "target" : 34962
        },
        {
            "buffer" : 0,
            "byteLength" : 3984,
            "byteOffset" : 11952,
            "target" : 34962
        },
        {
            "buffer" : 0,
            "byteLength" : 4752,
            "byteOffset" : 15936,
            "target" : 34963
        },
        {
            "buffer" : 0,
            "byteLength" : 5976,
            "byteOffset" : 20688,
            "target" : 34962
        },
        {
            "buffer" : 0,
            "byteLength" : 5976,
            "byteOffset" : 26664,
            "target" : 34962
        },
        {
            "buffer" : 0,
            "byteLength" : 3984,
            "byteOffset" : 32640,
            "target" : 34962
        },
        {
            "buffer" : 0,
            "byteLength" : 3684,
            "byteOffset" : 36624,
            "target" : 34962
        },
        {
            "buffer" : 0,
            "byteLength" : 3684,
            "byteOffset" : 40308,
            "target" : 34962
        },
        {
            "buffer" : 0,
            "byteLength" : 2456,
            "byteOffset" : 43992,
            "target" : 34962
        },
        {
            "buffer" : 0,
            "byteLength" : 1602,
            "byteOffset" : 46448,
            "target" : 34963
        },
        {
            "buffer" : 0,
            "byteLength" : 3684,
            "byteOffset" : 48052,
            "target" : 34962
        },
        {
            "buffer" : 0,
            "byteLength" : 3684,
            "byteOffset" : 51736,
            "target" : 34962
        },
        {
            "buffer" : 0,
            "byteLength" : 2456,
            "byteOffset" : 55420,
            "target" : 34962
        },
        {
            "buffer" : 0,
            "byteLength" : 1680,
            "byteOffset" : 57876,
            "target" : 34962
        },
        {
            "buffer" : 0,
            "byteLength" : 1680,
            "byteOffset" : 59556,
            "target" : 34962
        },
        {
            "buffer" : 0,
            "byteLength" : 1120,
            "byteOffset" : 61236,
            "target" : 34962
        },
        {
            "buffer" : 0,
            "byteLength" : 1368,
            "byteOffset" : 62356,
            "target" : 34963
        },
        {
            "buffer" : 0,
            "byteLength" : 1428,
            "byteOffset" : 63724,
            "target" : 34962
        },
        {
            "buffer" : 0,
            "byteLength" : 1428,
            "byteOffset" : 65152,
            "target" : 34962
        },
        {
            "buffer" : 0,
            "byteLength" : 952,
            "byteOffset" : 66580,
            "target" : 34962
        },
        {
            "buffer" : 0,
            "byteLength" : 1152,
            "byteOffset" : 67532,
            "target" : 34963
        },
        {
            "buffer" : 0,
            "byteLength" : 15624,
            "byteOffset" : 68684,
            "target" : 34962
        },
        {
            "buffer" : 0,
            "byteLength" : 15624,
            "byteOffset" : 84308,
            "target" : 34962
        },
        {
            "buffer" : 0,
            "byteLength" : 10416,
            "byteOffset" : 99932,
            "target" : 34962
        },
        {
            "buffer" : 0,
            "byteLength" : 10176,
            "byteOffset" : 110348,
            "target" : 34963
        },
        {
            "buffer" : 0,
            "byteLength" : 3888,
            "byteOffset" : 120524,
            "target" : 34962
        },
        {
            "buffer" : 0,
            "byteLength" : 3888,
            "byteOffset" : 124412,
            "target" : 34962
        },
        {
            "buffer" : 0,
            "byteLength" : 2592,
            "byteOffset" : 128300,
            "target" : 34962
        },
        {
            "buffer" : 0,
            "byteLength" : 3360,
            "byteOffset" : 130892,
            "target" : 34963
        }
    ],
    "samplers" : [
        {
            "magFilter" : 9729,
            "minFilter" : 9987
        }
    ],
    "buffers" : [
        {
            "byteLength" : 134252,
            "uri" : "candle.bin"
        }
    ]
}
