{
	"asset":{
		"generator":"Khronos glTF Blender I/O v4.4.56",
		"version":"2.0"
	},
	"extensionsUsed":[
		"KHR_materials_specular",
		"KHR_texture_transform"
	],
	"extensionsRequired":[
		"KHR_texture_transform"
	],
	"scene":0,
	"scenes":[
		{
			"name":"Scene",
			"nodes":[
				2,
				3,
				6,
				7,
				8,
				9,
				10
			]
		}
	],
	"nodes":[
		{
			"mesh":0,
			"name":"GRASS_BroomSnakeweed_Cluster_Low_Mat_0",
			"translation":[
				0,
				-8.28131103515625,
				0
			]
		},
		{
			"mesh":1,
			"name":"GRASS_RoughGrass_Low_Mat_0",
			"translation":[
				-20.52045440673828,
				1.52587890625e-05,
				14.96690559387207
			]
		},
		{
			"children":[
				0,
				1
			],
			"name":"GRASS",
			"scale":[
				0.009999999776482582,
				0.009999998845160007,
				0.009999998845160007
			],
			"translation":[
				-0.13375210762023926,
				-1.155686616897583,
				0.06909999996423721
			]
		},
		{
			"mesh":2,
			"name":"Plane",
			"rotation":[
				0,
				-0.6920684576034546,
				0,
				0.7218318581581116
			],
			"scale":[
				8.736047744750977,
				8.736047744750977,
				8.736047744750977
			],
			"translation":[
				0.1912834495306015,
				-0.6359497904777527,
				-0.33298254013061523
			]
		},
		{
			"mesh":3,
			"name":"TREE_A10_Mat_0.001",
			"translation":[
				0,
				-34.142669677734375,
				0
			]
		},
		{
			"mesh":4,
			"name":"w",
			"translation":[
				0,
				-34.142669677734375,
				0
			]
		},
		{
			"children":[
				4,
				5
			],
			"name":"TREE",
			"scale":[
				0.009999999776482582,
				0.009999998845160007,
				0.009999998845160007
			],
			"translation":[
				0.14873825013637543,
				2.9795291423797607,
				-0.21910996735095978
			]
		},
		{
			"mesh":5,
			"name":"Object_4",
			"rotation":[
				-0.40397152304649353,
				0.3774022161960602,
				-0.11385645717382431,
				0.8254764080047607
			],
			"scale":[
				0.012583456933498383,
				0.012583456933498383,
				0.012583456933498383
			],
			"translation":[
				-1.6132216453552246,
				5.391175270080566,
				-2.9182422161102295
			]
		},
		{
			"mesh":6,
			"name":"SOIL_Mat_0.001",
			"scale":[
				0.009999999776482582,
				0.010000001639127731,
				0.010000001639127731
			],
			"translation":[
				0,
				-0.49353256821632385,
				0
			]
		},
		{
			"mesh":7,
			"name":"polySurface2.001",
			"rotation":[
				0.7071068286895752,
				0,
				0,
				0.7071068286895752
			],
			"scale":[
				0.009999999776482582,
				0.009999999776482582,
				0.009999999776482582
			]
		},
		{
			"mesh":8,
			"name":"Object_3.088",
			"rotation":[
				0.7071068286895752,
				0,
				0,
				0.7071068286895752
			],
			"scale":[
				0.009999999776482582,
				0.009999999776482582,
				0.009999999776482582
			]
		}
	],
	"materials":[
		{
			"alphaMode":"BLEND",
			"doubleSided":true,
			"name":"BroomSnakeweed_Cluster_Low_Mat.002",
			"normalTexture":{
				"index":0
			},
			"pbrMetallicRoughness":{
				"baseColorTexture":{
					"index":1
				},
				"metallicFactor":0
			}
		},
		{
			"alphaMode":"BLEND",
			"doubleSided":true,
			"name":"RoughGrass_Low_Mat.002",
			"normalTexture":{
				"index":2
			},
			"pbrMetallicRoughness":{
				"baseColorTexture":{
					"index":3
				},
				"metallicFactor":0,
				"roughnessFactor":0.6000000238418579
			}
		},
		{
			"doubleSided":true,
			"name":"Material.001",
			"normalTexture":{
				"index":4
			},
			"pbrMetallicRoughness":{
				"baseColorTexture":{
					"index":5
				},
				"metallicFactor":0,
				"metallicRoughnessTexture":{
					"index":6
				}
			}
		},
		{
			"doubleSided":true,
			"name":"Material.006",
			"normalTexture":{
				"index":7,
				"scale":0.20000004768371582
			},
			"pbrMetallicRoughness":{
				"baseColorTexture":{
					"index":8
				},
				"metallicFactor":0,
				"roughnessFactor":0.5
			}
		},
		{
			"alphaMode":"BLEND",
			"doubleSided":true,
			"name":"A10_Mat.002",
			"pbrMetallicRoughness":{
				"baseColorTexture":{
					"index":9
				},
				"metallicFactor":0,
				"roughnessFactor":0.5
			}
		},
		{
			"doubleSided":true,
			"name":"Material.007",
			"normalTexture":{
				"index":10,
				"scale":0.4999999701976776
			},
			"pbrMetallicRoughness":{
				"baseColorTexture":{
					"index":11
				},
				"metallicFactor":0,
				"metallicRoughnessTexture":{
					"index":12
				}
			}
		},
		{
			"doubleSided":true,
			"name":"Material.008",
			"normalTexture":{
				"index":13
			},
			"pbrMetallicRoughness":{
				"baseColorTexture":{
					"index":14
				},
				"metallicFactor":0,
				"roughnessFactor":0.9863636493682861
			}
		},
		{
			"doubleSided":true,
			"emissiveFactor":[
				0.18859918415546417,
				0.18859918415546417,
				0.18859918415546417
			],
			"emissiveTexture":{
				"index":15
			},
			"name":"lambert2SG.001",
			"normalTexture":{
				"index":16
			},
			"occlusionTexture":{
				"index":17
			},
			"pbrMetallicRoughness":{
				"baseColorTexture":{
					"index":18
				},
				"metallicFactor":0,
				"metallicRoughnessTexture":{
					"index":17
				}
			}
		},
		{
			"doubleSided":true,
			"emissiveFactor":[
				0.18859918415546417,
				0.18859918415546417,
				0.18859918415546417
			],
			"emissiveTexture":{
				"index":19
			},
			"name":"lambert2SG.002",
			"normalTexture":{
				"index":20
			},
			"occlusionTexture":{
				"index":21
			},
			"pbrMetallicRoughness":{
				"baseColorTexture":{
					"index":22
				},
				"metallicFactor":0,
				"metallicRoughnessTexture":{
					"index":21
				}
			}
		},
		{
			"doubleSided":true,
			"emissiveFactor":[
				0.18859918415546417,
				0.18859918415546417,
				0.18859918415546417
			],
			"emissiveTexture":{
				"index":23
			},
			"name":"lambert2SG.003",
			"normalTexture":{
				"index":24
			},
			"occlusionTexture":{
				"index":25
			},
			"pbrMetallicRoughness":{
				"baseColorTexture":{
					"index":26
				},
				"metallicFactor":0,
				"metallicRoughnessTexture":{
					"index":25
				}
			}
		},
		{
			"doubleSided":true,
			"emissiveFactor":[
				0.18859918415546417,
				0.18859918415546417,
				0.18859918415546417
			],
			"emissiveTexture":{
				"index":27
			},
			"name":"lambert2SG",
			"normalTexture":{
				"index":28
			},
			"occlusionTexture":{
				"index":29
			},
			"pbrMetallicRoughness":{
				"baseColorTexture":{
					"index":30
				},
				"metallicFactor":0,
				"metallicRoughnessTexture":{
					"index":29
				}
			}
		},
		{
			"doubleSided":true,
			"name":"material",
			"normalTexture":{
				"index":31
			},
			"pbrMetallicRoughness":{
				"baseColorTexture":{
					"index":32
				},
				"metallicFactor":0,
				"roughnessFactor":0.8862401247024536
			}
		},
		{
			"alphaMode":"BLEND",
			"doubleSided":true,
			"emissiveFactor":[
				1,
				1,
				1
			],
			"emissiveTexture":{
				"index":33
			},
			"extensions":{
				"KHR_materials_specular":{
					"specularColorFactor":[
						2.0,
						2.0,
						2.0
					]
				}
			},
			"name":"Water_Pipe.001",
			"pbrMetallicRoughness":{
				"baseColorTexture":{
					"index":34
				},
				"metallicFactor":0,
				"roughnessFactor":0.5527864098548889
			}
		},
		{
			"alphaMode":"BLEND",
			"doubleSided":true,
			"emissiveFactor":[
				1,
				1,
				1
			],
			"emissiveTexture":{
				"extensions":{
					"KHR_texture_transform":{
						"offset":[
							0,
							-0.9080322980880737
						]
					}
				},
				"index":35
			},
			"extensions":{
				"KHR_materials_specular":{
					"specularColorFactor":[
						2.0,
						2.0,
						2.0
					]
				}
			},
			"name":"Water_Pipe.002",
			"pbrMetallicRoughness":{
				"baseColorTexture":{
					"extensions":{
						"KHR_texture_transform":{
							"offset":[
								0,
								-0.9080322980880737
							]
						}
					},
					"index":36
				},
				"metallicFactor":0,
				"roughnessFactor":0.5527864098548889
			}
		},
		{
			"alphaMode":"BLEND",
			"doubleSided":true,
			"extensions":{
				"KHR_materials_specular":{
					"specularColorFactor":[
						2.0,
						2.0,
						2.0
					]
				}
			},
			"name":"Material.017",
			"pbrMetallicRoughness":{
				"baseColorTexture":{
					"index":37
				},
				"metallicRoughnessTexture":{
					"index":38
				},
				"roughnessFactor":0.8781818151473999
			}
		},
		{
			"doubleSided":true,
			"emissiveFactor":[
				1,
				1,
				1
			],
			"emissiveTexture":{
				"index":39
			},
			"extensions":{
				"KHR_materials_specular":{
					"specularColorFactor":[
						2.0,
						2.0,
						2.0
					]
				}
			},
			"name":"lambert2SG.016",
			"normalTexture":{
				"index":40
			},
			"pbrMetallicRoughness":{
				"baseColorTexture":{
					"index":41
				},
				"metallicFactor":0,
				"roughnessFactor":0.5
			}
		}
	],
	"meshes":[
		{
			"name":"GRASS_BroomSnakeweed_Cluster_Low_Mat_0.002",
			"primitives":[
				{
					"attributes":{
						"POSITION":0,
						"NORMAL":1,
						"TEXCOORD_0":2,
						"TEXCOORD_1":3,
						"TANGENT":4
					},
					"indices":5,
					"material":0
				}
			]
		},
		{
			"name":"GRASS_RoughGrass_Low_Mat_0.002",
			"primitives":[
				{
					"attributes":{
						"POSITION":6,
						"NORMAL":7,
						"TEXCOORD_0":8,
						"TEXCOORD_1":9,
						"TANGENT":10
					},
					"indices":11,
					"material":1
				}
			]
		},
		{
			"name":"Plane.002",
			"primitives":[
				{
					"attributes":{
						"POSITION":12,
						"NORMAL":13,
						"TEXCOORD_0":14,
						"TANGENT":15
					},
					"indices":16,
					"material":2
				},
				{
					"attributes":{
						"POSITION":17,
						"NORMAL":18,
						"TEXCOORD_0":19,
						"TANGENT":20
					},
					"indices":21,
					"material":3
				}
			]
		},
		{
			"name":"TREE_A10_Mat_0.003",
			"primitives":[
				{
					"attributes":{
						"POSITION":22,
						"NORMAL":23,
						"TEXCOORD_0":24,
						"TANGENT":25
					},
					"indices":26,
					"material":4
				},
				{
					"attributes":{
						"POSITION":27,
						"NORMAL":28,
						"TEXCOORD_0":29,
						"TANGENT":30
					},
					"indices":31,
					"material":5
				},
				{
					"attributes":{
						"POSITION":32,
						"NORMAL":33,
						"TEXCOORD_0":34,
						"TANGENT":35
					},
					"indices":36,
					"material":6
				},
				{
					"attributes":{
						"POSITION":37,
						"NORMAL":38,
						"TEXCOORD_0":39,
						"TANGENT":40
					},
					"indices":41,
					"material":7
				},
				{
					"attributes":{
						"POSITION":42,
						"NORMAL":43,
						"TEXCOORD_0":44,
						"TANGENT":45
					},
					"indices":46,
					"material":8
				},
				{
					"attributes":{
						"POSITION":47,
						"NORMAL":48,
						"TEXCOORD_0":49,
						"TANGENT":50
					},
					"indices":51,
					"material":9
				},
				{
					"attributes":{
						"POSITION":52,
						"NORMAL":53,
						"TEXCOORD_0":54,
						"TANGENT":55
					},
					"indices":56,
					"material":10
				}
			]
		},
		{
			"name":"TREE_A10_Mat_0.001",
			"primitives":[
				{
					"attributes":{
						"POSITION":57,
						"NORMAL":58,
						"TEXCOORD_0":59,
						"TANGENT":60
					},
					"indices":61,
					"material":4
				}
			]
		},
		{
			"name":"Object_2",
			"primitives":[
				{
					"attributes":{
						"POSITION":62,
						"NORMAL":63,
						"TEXCOORD_0":64,
						"TANGENT":65
					},
					"indices":66,
					"material":10
				}
			]
		},
		{
			"name":"SOIL_Mat_0",
			"primitives":[
				{
					"attributes":{
						"POSITION":67,
						"NORMAL":68,
						"TEXCOORD_0":69,
						"TEXCOORD_1":70,
						"TANGENT":71
					},
					"indices":72,
					"material":11
				}
			]
		},
		{
			"name":"Mesh.001",
			"primitives":[
				{
					"attributes":{
						"POSITION":73,
						"NORMAL":74,
						"TEXCOORD_0":75,
						"TANGENT":76
					},
					"indices":77,
					"material":12
				},
				{
					"attributes":{
						"POSITION":78,
						"NORMAL":79,
						"TEXCOORD_0":80,
						"TANGENT":81
					},
					"indices":82,
					"material":13
				}
			]
		},
		{
			"name":"Mesh.004",
			"primitives":[
				{
					"attributes":{
						"POSITION":83,
						"NORMAL":84,
						"TEXCOORD_0":85,
						"TANGENT":86
					},
					"indices":87,
					"material":14
				},
				{
					"attributes":{
						"POSITION":88,
						"NORMAL":89,
						"TEXCOORD_0":90,
						"TANGENT":91
					},
					"indices":92,
					"material":15
				}
			]
		}
	],
	"textures":[
		{
			"sampler":0,
			"source":0
		},
		{
			"sampler":0,
			"source":1
		},
		{
			"sampler":1,
			"source":2
		},
		{
			"sampler":1,
			"source":3
		},
		{
			"sampler":1,
			"source":4
		},
		{
			"sampler":1,
			"source":5
		},
		{
			"sampler":1,
			"source":6
		},
		{
			"sampler":1,
			"source":7
		},
		{
			"sampler":1,
			"source":8
		},
		{
			"sampler":1,
			"source":9
		},
		{
			"sampler":1,
			"source":10
		},
		{
			"sampler":1,
			"source":11
		},
		{
			"sampler":1,
			"source":12
		},
		{
			"sampler":1,
			"source":13
		},
		{
			"sampler":1,
			"source":14
		},
		{
			"sampler":1,
			"source":15
		},
		{
			"sampler":1,
			"source":16
		},
		{
			"sampler":1,
			"source":17
		},
		{
			"sampler":1,
			"source":15
		},
		{
			"sampler":1,
			"source":15
		},
		{
			"sampler":1,
			"source":16
		},
		{
			"sampler":1,
			"source":17
		},
		{
			"sampler":1,
			"source":15
		},
		{
			"sampler":1,
			"source":15
		},
		{
			"sampler":1,
			"source":16
		},
		{
			"sampler":1,
			"source":17
		},
		{
			"sampler":1,
			"source":15
		},
		{
			"sampler":1,
			"source":15
		},
		{
			"sampler":1,
			"source":16
		},
		{
			"sampler":1,
			"source":17
		},
		{
			"sampler":1,
			"source":15
		},
		{
			"sampler":1,
			"source":18
		},
		{
			"sampler":1,
			"source":19
		},
		{
			"sampler":1,
			"source":20
		},
		{
			"sampler":1,
			"source":21
		},
		{
			"sampler":1,
			"source":20
		},
		{
			"sampler":1,
			"source":21
		},
		{
			"sampler":1,
			"source":22
		},
		{
			"sampler":1,
			"source":23
		},
		{
			"sampler":1,
			"source":15
		},
		{
			"sampler":1,
			"source":16
		},
		{
			"sampler":1,
			"source":15
		}
	],
	"images":[
		{
			"mimeType":"image/png",
			"name":"Image_1",
			"uri":"Image_1.png"
		},
		{
			"mimeType":"image/png",
			"name":"Image_0",
			"uri":"Image_0.png"
		},
		{
			"mimeType":"image/png",
			"name":"Image_3",
			"uri":"Image_3.png"
		},
		{
			"mimeType":"image/png",
			"name":"Image_2",
			"uri":"Image_2.png"
		},
		{
			"mimeType":"image/png",
			"name":"Material.001_Normal_OpenGL",
			"uri":"Material_001_Normal_OpenGL.png"
		},
		{
			"mimeType":"image/png",
			"name":"Material.001_Base_color",
			"uri":"Material_001_Base_color.png"
		},
		{
			"mimeType":"image/png",
			"name":"Material.001_Roughness",
			"uri":"Material_001_Roughness.png"
		},
		{
			"mimeType":"image/png",
			"name":"Underground_Normal_OpenGL",
			"uri":"Underground_Normal_OpenGL.png"
		},
		{
			"mimeType":"image/png",
			"name":"Underground_Base_color",
			"uri":"Underground_Base_color.png"
		},
		{
			"mimeType":"image/png",
			"name":"Image_6",
			"uri":"Image_6.png"
		},
		{
			"mimeType":"image/png",
			"name":"Section_Normal_OpenGL",
			"uri":"Section_Normal_OpenGL.png"
		},
		{
			"mimeType":"image/png",
			"name":"Section_Base_color",
			"uri":"Section_Base_color.png"
		},
		{
			"mimeType":"image/png",
			"name":"Section_Roughness",
			"uri":"Section_Roughness.png"
		},
		{
			"mimeType":"image/png",
			"name":"Image_7",
			"uri":"Image_7.png"
		},
		{
			"mimeType":"image/png",
			"name":"Image_62-Image_6_A",
			"uri":"Image_62-Image_6_A.png"
		},
		{
			"mimeType":"image/png",
			"name":"lambert2SG_baseColor",
			"uri":"lambert2SG_baseColor.png"
		},
		{
			"mimeType":"image/png",
			"name":"lambert2SG_normal",
			"uri":"lambert2SG_normal.png"
		},
		{
			"mimeType":"image/png",
			"name":"lambert2SG_metallicRoughness",
			"uri":"lambert2SG_metallicRoughness.png"
		},
		{
			"mimeType":"image/png",
			"name":"material_normal",
			"uri":"material_normal.png"
		},
		{
			"mimeType":"image/png",
			"name":"material_baseColor",
			"uri":"material_baseColor.png"
		},
		{
			"mimeType":"image/png",
			"name":"Water_flow",
			"uri":"Water_flow.png"
		},
		{
			"mimeType":"image/png",
			"name":"Water_flow",
			"uri":"Water_flow-1.png"
		},
		{
			"mimeType":"image/png",
			"name":"Material.002_baseColor",
			"uri":"Material_002_baseColor.png"
		},
		{
			"mimeType":"image/png",
			"name":"Material.002_metallicRoughness",
			"uri":"Material_002_metallicRoughness.png"
		}
	],
	"accessors":[
		{
			"bufferView":0,
			"componentType":5126,
			"count":19436,
			"max":[
				298.1273193359375,
				177.64077758789062,
				223.83914184570312
			],
			"min":[
				-286.5469970703125,
				-98.22643280029297,
				-167.69244384765625
			],
			"type":"VEC3"
		},
		{
			"bufferView":1,
			"componentType":5126,
			"count":19436,
			"type":"VEC3"
		},
		{
			"bufferView":2,
			"componentType":5126,
			"count":19436,
			"type":"VEC2"
		},
		{
			"bufferView":3,
			"componentType":5126,
			"count":19436,
			"type":"VEC2"
		},
		{
			"bufferView":4,
			"componentType":5126,
			"count":19436,
			"type":"VEC4"
		},
		{
			"bufferView":5,
			"componentType":5123,
			"count":38580,
			"type":"SCALAR"
		},
		{
			"bufferView":6,
			"componentType":5126,
			"count":70,
			"max":[
				94.62540435791016,
				204.28573608398438,
				77.7906723022461
			],
			"min":[
				-83.9170150756836,
				95.49070739746094,
				-98.89908599853516
			],
			"type":"VEC3"
		},
		{
			"bufferView":7,
			"componentType":5126,
			"count":70,
			"type":"VEC3"
		},
		{
			"bufferView":8,
			"componentType":5126,
			"count":70,
			"type":"VEC2"
		},
		{
			"bufferView":9,
			"componentType":5126,
			"count":70,
			"type":"VEC2"
		},
		{
			"bufferView":10,
			"componentType":5126,
			"count":70,
			"type":"VEC4"
		},
		{
			"bufferView":11,
			"componentType":5123,
			"count":126,
			"type":"SCALAR"
		},
		{
			"bufferView":12,
			"componentType":5126,
			"count":156,
			"max":[
				2.850531816482544,
				0.2862350642681122,
				3.3307597637176514
			],
			"min":[
				-2.6133546829223633,
				-0.01757558435201645,
				-2.175135850906372
			],
			"type":"VEC3"
		},
		{
			"bufferView":13,
			"componentType":5126,
			"count":156,
			"type":"VEC3"
		},
		{
			"bufferView":14,
			"componentType":5126,
			"count":156,
			"type":"VEC2"
		},
		{
			"bufferView":15,
			"componentType":5126,
			"count":156,
			"type":"VEC4"
		},
		{
			"bufferView":16,
			"componentType":5123,
			"count":741,
			"type":"SCALAR"
		},
		{
			"bufferView":17,
			"componentType":5126,
			"count":581,
			"max":[
				2.850531816482544,
				0.22815486788749695,
				3.3307597637176514
			],
			"min":[
				-2.6133546829223633,
				-2.718203067779541,
				-2.175135850906372
			],
			"type":"VEC3"
		},
		{
			"bufferView":18,
			"componentType":5126,
			"count":581,
			"type":"VEC3"
		},
		{
			"bufferView":19,
			"componentType":5126,
			"count":581,
			"type":"VEC2"
		},
		{
			"bufferView":20,
			"componentType":5126,
			"count":581,
			"type":"VEC4"
		},
		{
			"bufferView":21,
			"componentType":5123,
			"count":2751,
			"type":"SCALAR"
		},
		{
			"bufferView":22,
			"componentType":5126,
			"count":9,
			"max":[
				-8.92286491394043,
				470.3060607910156,
				-10.902482986450195
			],
			"min":[
				-188.2283477783203,
				268.3158264160156,
				-289.30670166015625
			],
			"type":"VEC3"
		},
		{
			"bufferView":23,
			"componentType":5126,
			"count":9,
			"type":"VEC3"
		},
		{
			"bufferView":24,
			"componentType":5126,
			"count":9,
			"type":"VEC2"
		},
		{
			"bufferView":25,
			"componentType":5126,
			"count":9,
			"type":"VEC4"
		},
		{
			"bufferView":26,
			"componentType":5123,
			"count":9,
			"type":"SCALAR"
		},
		{
			"bufferView":27,
			"componentType":5126,
			"count":113,
			"max":[
				76.5751953125,
				684.5319213867188,
				72.47077941894531
			],
			"min":[
				-61.23049545288086,
				-329.7392883300781,
				-111.1795425415039
			],
			"type":"VEC3"
		},
		{
			"bufferView":28,
			"componentType":5126,
			"count":113,
			"type":"VEC3"
		},
		{
			"bufferView":29,
			"componentType":5126,
			"count":113,
			"type":"VEC2"
		},
		{
			"bufferView":30,
			"componentType":5126,
			"count":113,
			"type":"VEC4"
		},
		{
			"bufferView":31,
			"componentType":5123,
			"count":318,
			"type":"SCALAR"
		},
		{
			"bufferView":32,
			"componentType":5126,
			"count":34980,
			"max":[
				419.70147705078125,
				821.1309814453125,
				382.571044921875
			],
			"min":[
				-418.5477294921875,
				-821.9697265625,
				-386.07476806640625
			],
			"type":"VEC3"
		},
		{
			"bufferView":33,
			"componentType":5126,
			"count":34980,
			"type":"VEC3"
		},
		{
			"bufferView":34,
			"componentType":5126,
			"count":34980,
			"type":"VEC2"
		},
		{
			"bufferView":35,
			"componentType":5126,
			"count":34980,
			"type":"VEC4"
		},
		{
			"bufferView":36,
			"componentType":5123,
			"count":111867,
			"type":"SCALAR"
		},
		{
			"bufferView":37,
			"componentType":5126,
			"count":3518,
			"max":[
				-131.69223022460938,
				312.3164978027344,
				-128.89695739746094
			],
			"min":[
				-227.98526000976562,
				203.3790740966797,
				-204.7917022705078
			],
			"type":"VEC3"
		},
		{
			"bufferView":38,
			"componentType":5126,
			"count":3518,
			"type":"VEC3"
		},
		{
			"bufferView":39,
			"componentType":5126,
			"count":3518,
			"type":"VEC2"
		},
		{
			"bufferView":40,
			"componentType":5126,
			"count":3518,
			"type":"VEC4"
		},
		{
			"bufferView":41,
			"componentType":5123,
			"count":4338,
			"type":"SCALAR"
		},
		{
			"bufferView":42,
			"componentType":5126,
			"count":1367,
			"max":[
				-188.81239318847656,
				299.6505126953125,
				-276.8507995605469
			],
			"min":[
				-202.78172302246094,
				283.9732360839844,
				-289.0230712890625
			],
			"type":"VEC3"
		},
		{
			"bufferView":43,
			"componentType":5126,
			"count":1367,
			"type":"VEC3"
		},
		{
			"bufferView":44,
			"componentType":5126,
			"count":1367,
			"type":"VEC2"
		},
		{
			"bufferView":45,
			"componentType":5126,
			"count":1367,
			"type":"VEC4"
		},
		{
			"bufferView":46,
			"componentType":5123,
			"count":1617,
			"type":"SCALAR"
		},
		{
			"bufferView":47,
			"componentType":5126,
			"count":1369,
			"max":[
				-194.337158203125,
				336.45220947265625,
				-264.8421325683594
			],
			"min":[
				-205.21791076660156,
				320.7749328613281,
				-280.1556396484375
			],
			"type":"VEC3"
		},
		{
			"bufferView":48,
			"componentType":5126,
			"count":1369,
			"type":"VEC3"
		},
		{
			"bufferView":49,
			"componentType":5126,
			"count":1369,
			"type":"VEC2"
		},
		{
			"bufferView":50,
			"componentType":5126,
			"count":1369,
			"type":"VEC4"
		},
		{
			"bufferView":51,
			"componentType":5123,
			"count":1617,
			"type":"SCALAR"
		},
		{
			"bufferView":52,
			"componentType":5126,
			"count":2858,
			"max":[
				-162.95547485351562,
				354.8953857421875,
				-218.20909118652344
			],
			"min":[
				-215.0367431640625,
				291.6531982421875,
				-242.04229736328125
			],
			"type":"VEC3"
		},
		{
			"bufferView":53,
			"componentType":5126,
			"count":2858,
			"type":"VEC3"
		},
		{
			"bufferView":54,
			"componentType":5126,
			"count":2858,
			"type":"VEC2"
		},
		{
			"bufferView":55,
			"componentType":5126,
			"count":2858,
			"type":"VEC4"
		},
		{
			"bufferView":56,
			"componentType":5123,
			"count":3414,
			"type":"SCALAR"
		},
		{
			"bufferView":57,
			"componentType":5126,
			"count":41642,
			"max":[
				509.4948425292969,
				882.917724609375,
				473.4052734375
			],
			"min":[
				-480.8623962402344,
				-843.515869140625,
				-430.85687255859375
			],
			"type":"VEC3"
		},
		{
			"bufferView":58,
			"componentType":5126,
			"count":41642,
			"type":"VEC3"
		},
		{
			"bufferView":59,
			"componentType":5126,
			"count":41642,
			"type":"VEC2"
		},
		{
			"bufferView":60,
			"componentType":5126,
			"count":41642,
			"type":"VEC4"
		},
		{
			"bufferView":61,
			"componentType":5123,
			"count":86211,
			"type":"SCALAR"
		},
		{
			"bufferView":62,
			"componentType":5126,
			"count":3459,
			"max":[
				2.582718849182129,
				14.49625015258789,
				0.8176590204238892
			],
			"min":[
				-16.299949645996094,
				-30.84223175048828,
				-82.60797882080078
			],
			"type":"VEC3"
		},
		{
			"bufferView":63,
			"componentType":5126,
			"count":3459,
			"type":"VEC3"
		},
		{
			"bufferView":64,
			"componentType":5126,
			"count":3459,
			"type":"VEC2"
		},
		{
			"bufferView":65,
			"componentType":5126,
			"count":3459,
			"type":"VEC4"
		},
		{
			"bufferView":66,
			"componentType":5123,
			"count":4338,
			"type":"SCALAR"
		},
		{
			"bufferView":67,
			"componentType":5126,
			"count":9909,
			"max":[
				212.0491180419922,
				47.80845642089844,
				235.01730346679688
			],
			"min":[
				-281.8985900878906,
				-323.8083190917969,
				-153.1047821044922
			],
			"type":"VEC3"
		},
		{
			"bufferView":68,
			"componentType":5126,
			"count":9909,
			"type":"VEC3"
		},
		{
			"bufferView":69,
			"componentType":5126,
			"count":9909,
			"type":"VEC2"
		},
		{
			"bufferView":70,
			"componentType":5126,
			"count":9909,
			"type":"VEC2"
		},
		{
			"bufferView":71,
			"componentType":5126,
			"count":9909,
			"type":"VEC4"
		},
		{
			"bufferView":72,
			"componentType":5123,
			"count":51819,
			"type":"SCALAR"
		},
		{
			"bufferView":73,
			"componentType":5126,
			"count":1190,
			"max":[
				350.7551574707031,
				52.629112243652344,
				216.68870544433594
			],
			"min":[
				-189.84091186523438,
				-324.6479797363281,
				-946.1197509765625
			],
			"type":"VEC3"
		},
		{
			"bufferView":74,
			"componentType":5126,
			"count":1190,
			"type":"VEC3"
		},
		{
			"bufferView":75,
			"componentType":5126,
			"count":1190,
			"type":"VEC2"
		},
		{
			"bufferView":76,
			"componentType":5126,
			"count":1190,
			"type":"VEC4"
		},
		{
			"bufferView":77,
			"componentType":5123,
			"count":2016,
			"type":"SCALAR"
		},
		{
			"bufferView":78,
			"componentType":5126,
			"count":334,
			"max":[
				-108.1581039428711,
				-210.53050231933594,
				-464.5293884277344
			],
			"min":[
				-171.2582550048828,
				-283.3451843261719,
				-579.6658935546875
			],
			"type":"VEC3"
		},
		{
			"bufferView":79,
			"componentType":5126,
			"count":334,
			"type":"VEC3"
		},
		{
			"bufferView":80,
			"componentType":5126,
			"count":334,
			"type":"VEC2"
		},
		{
			"bufferView":81,
			"componentType":5126,
			"count":334,
			"type":"VEC4"
		},
		{
			"bufferView":82,
			"componentType":5123,
			"count":990,
			"type":"SCALAR"
		},
		{
			"bufferView":83,
			"componentType":5126,
			"count":425,
			"max":[
				-109.17997741699219,
				-132.74099731445312,
				-458.2059020996094
			],
			"min":[
				-252.57955932617188,
				-357.787109375,
				-630.2938232421875
			],
			"type":"VEC3"
		},
		{
			"bufferView":84,
			"componentType":5126,
			"count":425,
			"type":"VEC3"
		},
		{
			"bufferView":85,
			"componentType":5126,
			"count":425,
			"type":"VEC2"
		},
		{
			"bufferView":86,
			"componentType":5126,
			"count":425,
			"type":"VEC4"
		},
		{
			"bufferView":87,
			"componentType":5123,
			"count":1020,
			"type":"SCALAR"
		},
		{
			"bufferView":88,
			"componentType":5126,
			"count":1121,
			"max":[
				-174.2631072998047,
				-304.1236877441406,
				-548.1299438476562
			],
			"min":[
				-181.778076171875,
				-310.6719055175781,
				-556.563720703125
			],
			"type":"VEC3"
		},
		{
			"bufferView":89,
			"componentType":5126,
			"count":1121,
			"type":"VEC3"
		},
		{
			"bufferView":90,
			"componentType":5126,
			"count":1121,
			"type":"VEC2"
		},
		{
			"bufferView":91,
			"componentType":5126,
			"count":1121,
			"type":"VEC4"
		},
		{
			"bufferView":92,
			"componentType":5123,
			"count":1617,
			"type":"SCALAR"
		}
	],
	"bufferViews":[
		{
			"buffer":0,
			"byteLength":233232,
			"byteOffset":0,
			"target":34962
		},
		{
			"buffer":0,
			"byteLength":233232,
			"byteOffset":233232,
			"target":34962
		},
		{
			"buffer":0,
			"byteLength":155488,
			"byteOffset":466464,
			"target":34962
		},
		{
			"buffer":0,
			"byteLength":155488,
			"byteOffset":621952,
			"target":34962
		},
		{
			"buffer":0,
			"byteLength":310976,
			"byteOffset":777440,
			"target":34962
		},
		{
			"buffer":0,
			"byteLength":77160,
			"byteOffset":1088416,
			"target":34963
		},
		{
			"buffer":0,
			"byteLength":840,
			"byteOffset":1165576,
			"target":34962
		},
		{
			"buffer":0,
			"byteLength":840,
			"byteOffset":1166416,
			"target":34962
		},
		{
			"buffer":0,
			"byteLength":560,
			"byteOffset":1167256,
			"target":34962
		},
		{
			"buffer":0,
			"byteLength":560,
			"byteOffset":1167816,
			"target":34962
		},
		{
			"buffer":0,
			"byteLength":1120,
			"byteOffset":1168376,
			"target":34962
		},
		{
			"buffer":0,
			"byteLength":252,
			"byteOffset":1169496,
			"target":34963
		},
		{
			"buffer":0,
			"byteLength":1872,
			"byteOffset":1169748,
			"target":34962
		},
		{
			"buffer":0,
			"byteLength":1872,
			"byteOffset":1171620,
			"target":34962
		},
		{
			"buffer":0,
			"byteLength":1248,
			"byteOffset":1173492,
			"target":34962
		},
		{
			"buffer":0,
			"byteLength":2496,
			"byteOffset":1174740,
			"target":34962
		},
		{
			"buffer":0,
			"byteLength":1482,
			"byteOffset":1177236,
			"target":34963
		},
		{
			"buffer":0,
			"byteLength":6972,
			"byteOffset":1178720,
			"target":34962
		},
		{
			"buffer":0,
			"byteLength":6972,
			"byteOffset":1185692,
			"target":34962
		},
		{
			"buffer":0,
			"byteLength":4648,
			"byteOffset":1192664,
			"target":34962
		},
		{
			"buffer":0,
			"byteLength":9296,
			"byteOffset":1197312,
			"target":34962
		},
		{
			"buffer":0,
			"byteLength":5502,
			"byteOffset":1206608,
			"target":34963
		},
		{
			"buffer":0,
			"byteLength":108,
			"byteOffset":1212112,
			"target":34962
		},
		{
			"buffer":0,
			"byteLength":108,
			"byteOffset":1212220,
			"target":34962
		},
		{
			"buffer":0,
			"byteLength":72,
			"byteOffset":1212328,
			"target":34962
		},
		{
			"buffer":0,
			"byteLength":144,
			"byteOffset":1212400,
			"target":34962
		},
		{
			"buffer":0,
			"byteLength":18,
			"byteOffset":1212544,
			"target":34963
		},
		{
			"buffer":0,
			"byteLength":1356,
			"byteOffset":1212564,
			"target":34962
		},
		{
			"buffer":0,
			"byteLength":1356,
			"byteOffset":1213920,
			"target":34962
		},
		{
			"buffer":0,
			"byteLength":904,
			"byteOffset":1215276,
			"target":34962
		},
		{
			"buffer":0,
			"byteLength":1808,
			"byteOffset":1216180,
			"target":34962
		},
		{
			"buffer":0,
			"byteLength":636,
			"byteOffset":1217988,
			"target":34963
		},
		{
			"buffer":0,
			"byteLength":419760,
			"byteOffset":1218624,
			"target":34962
		},
		{
			"buffer":0,
			"byteLength":419760,
			"byteOffset":1638384,
			"target":34962
		},
		{
			"buffer":0,
			"byteLength":279840,
			"byteOffset":2058144,
			"target":34962
		},
		{
			"buffer":0,
			"byteLength":559680,
			"byteOffset":2337984,
			"target":34962
		},
		{
			"buffer":0,
			"byteLength":223734,
			"byteOffset":2897664,
			"target":34963
		},
		{
			"buffer":0,
			"byteLength":42216,
			"byteOffset":3121400,
			"target":34962
		},
		{
			"buffer":0,
			"byteLength":42216,
			"byteOffset":3163616,
			"target":34962
		},
		{
			"buffer":0,
			"byteLength":28144,
			"byteOffset":3205832,
			"target":34962
		},
		{
			"buffer":0,
			"byteLength":56288,
			"byteOffset":3233976,
			"target":34962
		},
		{
			"buffer":0,
			"byteLength":8676,
			"byteOffset":3290264,
			"target":34963
		},
		{
			"buffer":0,
			"byteLength":16404,
			"byteOffset":3298940,
			"target":34962
		},
		{
			"buffer":0,
			"byteLength":16404,
			"byteOffset":3315344,
			"target":34962
		},
		{
			"buffer":0,
			"byteLength":10936,
			"byteOffset":3331748,
			"target":34962
		},
		{
			"buffer":0,
			"byteLength":21872,
			"byteOffset":3342684,
			"target":34962
		},
		{
			"buffer":0,
			"byteLength":3234,
			"byteOffset":3364556,
			"target":34963
		},
		{
			"buffer":0,
			"byteLength":16428,
			"byteOffset":3367792,
			"target":34962
		},
		{
			"buffer":0,
			"byteLength":16428,
			"byteOffset":3384220,
			"target":34962
		},
		{
			"buffer":0,
			"byteLength":10952,
			"byteOffset":3400648,
			"target":34962
		},
		{
			"buffer":0,
			"byteLength":21904,
			"byteOffset":3411600,
			"target":34962
		},
		{
			"buffer":0,
			"byteLength":3234,
			"byteOffset":3433504,
			"target":34963
		},
		{
			"buffer":0,
			"byteLength":34296,
			"byteOffset":3436740,
			"target":34962
		},
		{
			"buffer":0,
			"byteLength":34296,
			"byteOffset":3471036,
			"target":34962
		},
		{
			"buffer":0,
			"byteLength":22864,
			"byteOffset":3505332,
			"target":34962
		},
		{
			"buffer":0,
			"byteLength":45728,
			"byteOffset":3528196,
			"target":34962
		},
		{
			"buffer":0,
			"byteLength":6828,
			"byteOffset":3573924,
			"target":34963
		},
		{
			"buffer":0,
			"byteLength":499704,
			"byteOffset":3580752,
			"target":34962
		},
		{
			"buffer":0,
			"byteLength":499704,
			"byteOffset":4080456,
			"target":34962
		},
		{
			"buffer":0,
			"byteLength":333136,
			"byteOffset":4580160,
			"target":34962
		},
		{
			"buffer":0,
			"byteLength":666272,
			"byteOffset":4913296,
			"target":34962
		},
		{
			"buffer":0,
			"byteLength":172422,
			"byteOffset":5579568,
			"target":34963
		},
		{
			"buffer":0,
			"byteLength":41508,
			"byteOffset":5751992,
			"target":34962
		},
		{
			"buffer":0,
			"byteLength":41508,
			"byteOffset":5793500,
			"target":34962
		},
		{
			"buffer":0,
			"byteLength":27672,
			"byteOffset":5835008,
			"target":34962
		},
		{
			"buffer":0,
			"byteLength":55344,
			"byteOffset":5862680,
			"target":34962
		},
		{
			"buffer":0,
			"byteLength":8676,
			"byteOffset":5918024,
			"target":34963
		},
		{
			"buffer":0,
			"byteLength":118908,
			"byteOffset":5926700,
			"target":34962
		},
		{
			"buffer":0,
			"byteLength":118908,
			"byteOffset":6045608,
			"target":34962
		},
		{
			"buffer":0,
			"byteLength":79272,
			"byteOffset":6164516,
			"target":34962
		},
		{
			"buffer":0,
			"byteLength":79272,
			"byteOffset":6243788,
			"target":34962
		},
		{
			"buffer":0,
			"byteLength":158544,
			"byteOffset":6323060,
			"target":34962
		},
		{
			"buffer":0,
			"byteLength":103638,
			"byteOffset":6481604,
			"target":34963
		},
		{
			"buffer":0,
			"byteLength":14280,
			"byteOffset":6585244,
			"target":34962
		},
		{
			"buffer":0,
			"byteLength":14280,
			"byteOffset":6599524,
			"target":34962
		},
		{
			"buffer":0,
			"byteLength":9520,
			"byteOffset":6613804,
			"target":34962
		},
		{
			"buffer":0,
			"byteLength":19040,
			"byteOffset":6623324,
			"target":34962
		},
		{
			"buffer":0,
			"byteLength":4032,
			"byteOffset":6642364,
			"target":34963
		},
		{
			"buffer":0,
			"byteLength":4008,
			"byteOffset":6646396,
			"target":34962
		},
		{
			"buffer":0,
			"byteLength":4008,
			"byteOffset":6650404,
			"target":34962
		},
		{
			"buffer":0,
			"byteLength":2672,
			"byteOffset":6654412,
			"target":34962
		},
		{
			"buffer":0,
			"byteLength":5344,
			"byteOffset":6657084,
			"target":34962
		},
		{
			"buffer":0,
			"byteLength":1980,
			"byteOffset":6662428,
			"target":34963
		},
		{
			"buffer":0,
			"byteLength":5100,
			"byteOffset":6664408,
			"target":34962
		},
		{
			"buffer":0,
			"byteLength":5100,
			"byteOffset":6669508,
			"target":34962
		},
		{
			"buffer":0,
			"byteLength":3400,
			"byteOffset":6674608,
			"target":34962
		},
		{
			"buffer":0,
			"byteLength":6800,
			"byteOffset":6678008,
			"target":34962
		},
		{
			"buffer":0,
			"byteLength":2040,
			"byteOffset":6684808,
			"target":34963
		},
		{
			"buffer":0,
			"byteLength":13452,
			"byteOffset":6686848,
			"target":34962
		},
		{
			"buffer":0,
			"byteLength":13452,
			"byteOffset":6700300,
			"target":34962
		},
		{
			"buffer":0,
			"byteLength":8968,
			"byteOffset":6713752,
			"target":34962
		},
		{
			"buffer":0,
			"byteLength":17936,
			"byteOffset":6722720,
			"target":34962
		},
		{
			"buffer":0,
			"byteLength":3234,
			"byteOffset":6740656,
			"target":34963
		}
	],
	"samplers":[
		{
			"magFilter":9729,
			"minFilter":9987,
			"wrapS":33071,
			"wrapT":33071
		},
		{
			"magFilter":9729,
			"minFilter":9987
		}
	],
	"buffers":[
		{
			"byteLength":6743892,
			"uri":"Final_Tree.bin"
		}
	]
}
