{
	"asset":{
		"generator":"Khronos glTF Blender I/O v4.4.56",
		"version":"2.0"
	},
	"extensionsUsed":[
		"KHR_materials_specular"
	],
	"scene":0,
	"scenes":[
		{
			"name":"Scene",
			"nodes":[
				2,
				4,
				8,
				9,
				10
			]
		}
	],
	"nodes":[
		{
			"mesh":0,
			"name":"GRASS_BroomSnakeweed_Cluster_Low_Mat_0",
			"translation":[
				0,
				1.52587890625e-05,
				0
			]
		},
		{
			"mesh":1,
			"name":"GRASS_RoughGrass_Low_Mat_0",
			"translation":[
				0,
				1.52587890625e-05,
				0
			]
		},
		{
			"children":[
				0,
				1
			],
			"name":"GRASS",
			"scale":[
				0.009999999776482582,
				0.009999998845160007,
				0.009999998845160007
			],
			"translation":[
				-0.13375210762023926,
				-1.155686616897583,
				0.06909999996423721
			]
		},
		{
			"mesh":2,
			"name":"SOIL_Mat_0"
		},
		{
			"children":[
				3
			],
			"name":"SOIL",
			"scale":[
				0.009999999776482582,
				0.009999998845160007,
				0.009999998845160007
			],
			"translation":[
				0,
				-0.08438470214605331,
				0
			]
		},
		{
			"mesh":3,
			"name":"TREE_A10_Mat_0",
			"translation":[
				0,
				0.0001220703125,
				0
			]
		},
		{
			"mesh":4,
			"name":"TREE_A10_Mat_0.001",
			"translation":[
				0,
				0.0001220703125,
				0
			]
		},
		{
			"mesh":5,
			"name":"TREE_A10_Mat_0.002",
			"translation":[
				0,
				0.0001220703125,
				0
			]
		},
		{
			"children":[
				5,
				6,
				7
			],
			"name":"TREE",
			"scale":[
				0.009999999776482582,
				0.009999998845160007,
				0.009999998845160007
			],
			"translation":[
				0.14873825013637543,
				2.9795291423797607,
				-0.21910998225212097
			]
		},
		{
			"mesh":6,
			"name":"Plane",
			"scale":[
				8.736047744750977,
				8.736047744750977,
				8.736047744750977
			],
			"translation":[
				0,
				-0.6359497904777527,
				0
			]
		},
		{
			"mesh":7,
			"name":"pSphere1",
			"rotation":[
				0.7071065902709961,
				0,
				0,
				0.7071069478988647
			],
			"scale":[
				25.057178497314453,
				25.057174682617188,
				18.037946701049805
			],
			"translation":[
				0.6525383591651917,
				8.345165252685547,
				1.316817045211792
			]
		}
	],
	"materials":[
		{
			"alphaCutoff":0.28177085518836975,
			"alphaMode":"MASK",
			"doubleSided":true,
			"name":"BroomSnakeweed_Cluster_Low_Mat",
			"normalTexture":{
				"index":0,
				"texCoord":1
			},
			"pbrMetallicRoughness":{
				"baseColorTexture":{
					"index":1
				},
				"metallicFactor":0
			}
		},
		{
			"alphaCutoff":0.1243569627404213,
			"alphaMode":"MASK",
			"doubleSided":true,
			"name":"RoughGrass_Low_Mat",
			"normalTexture":{
				"index":2
			},
			"pbrMetallicRoughness":{
				"baseColorTexture":{
					"index":3
				},
				"metallicFactor":0,
				"roughnessFactor":0.6000000238418579
			}
		},
		{
			"doubleSided":true,
			"name":"material",
			"normalTexture":{
				"index":4
			},
			"pbrMetallicRoughness":{
				"baseColorTexture":{
					"index":5
				},
				"metallicFactor":0,
				"roughnessFactor":0.8862401247024536
			}
		},
		{
			"alphaCutoff":0.3762191832065582,
			"alphaMode":"MASK",
			"doubleSided":true,
			"name":"A10_Mat",
			"normalTexture":{
				"index":6
			},
			"pbrMetallicRoughness":{
				"baseColorTexture":{
					"index":7
				},
				"metallicFactor":0,
				"roughnessFactor":0.7532535791397095
			}
		},
		{
			"alphaMode":"BLEND",
			"doubleSided":true,
			"extensions":{
				"KHR_materials_specular":{
					"specularColorTexture":{
						"index":8
					}
				}
			},
			"name":"Material.002",
			"normalTexture":{
				"index":9
			},
			"pbrMetallicRoughness":{
				"baseColorTexture":{
					"index":10
				},
				"metallicFactor":0,
				"roughnessFactor":0.7545454502105713
			}
		},
		{
			"doubleSided":true,
			"emissiveFactor":[
				1,
				1,
				1
			],
			"emissiveTexture":{
				"index":11
			},
			"name":"surfaceShader1",
			"pbrMetallicRoughness":{
				"baseColorFactor":[
					0,
					0,
					0,
					1
				]
			}
		}
	],
	"meshes":[
		{
			"name":"GRASS_BroomSnakeweed_Cluster_Low_Mat_0",
			"primitives":[
				{
					"attributes":{
						"POSITION":0,
						"NORMAL":1,
						"TEXCOORD_0":2,
						"TEXCOORD_1":3
					},
					"indices":4,
					"material":0
				}
			]
		},
		{
			"name":"GRASS_RoughGrass_Low_Mat_0",
			"primitives":[
				{
					"attributes":{
						"POSITION":5,
						"NORMAL":6,
						"TEXCOORD_0":7,
						"TEXCOORD_1":8
					},
					"indices":9,
					"material":1
				}
			]
		},
		{
			"name":"SOIL_Mat_0",
			"primitives":[
				{
					"attributes":{
						"POSITION":10,
						"NORMAL":11,
						"TEXCOORD_0":12,
						"TEXCOORD_1":13
					},
					"indices":14,
					"material":2
				}
			]
		},
		{
			"name":"TREE_A10_Mat_0",
			"primitives":[
				{
					"attributes":{
						"POSITION":15,
						"NORMAL":16,
						"TEXCOORD_0":17,
						"TEXCOORD_1":18
					},
					"indices":19,
					"material":3
				}
			]
		},
		{
			"name":"TREE_A10_Mat_0.001",
			"primitives":[
				{
					"attributes":{
						"POSITION":20,
						"NORMAL":21,
						"TEXCOORD_0":22,
						"TEXCOORD_1":23
					},
					"indices":24,
					"material":3
				}
			]
		},
		{
			"name":"TREE_A10_Mat_0.002",
			"primitives":[
				{
					"attributes":{
						"POSITION":25,
						"NORMAL":26,
						"TEXCOORD_0":27,
						"TEXCOORD_1":28
					},
					"indices":29,
					"material":3
				}
			]
		},
		{
			"name":"Plane.001",
			"primitives":[
				{
					"attributes":{
						"POSITION":30,
						"NORMAL":31,
						"TEXCOORD_0":32
					},
					"indices":33,
					"material":4
				}
			]
		},
		{
			"name":"Mesh",
			"primitives":[
				{
					"attributes":{
						"POSITION":34,
						"NORMAL":35,
						"TEXCOORD_0":36
					},
					"indices":37,
					"material":5
				}
			]
		}
	],
	"textures":[
		{
			"sampler":0,
			"source":0
		},
		{
			"sampler":0,
			"source":1
		},
		{
			"sampler":1,
			"source":2
		},
		{
			"sampler":1,
			"source":3
		},
		{
			"sampler":1,
			"source":4
		},
		{
			"sampler":1,
			"source":5
		},
		{
			"sampler":1,
			"source":6
		},
		{
			"sampler":1,
			"source":7
		},
		{
			"sampler":1,
			"source":8
		},
		{
			"sampler":1,
			"source":9
		},
		{
			"sampler":1,
			"source":10
		},
		{
			"sampler":1,
			"source":11
		}
	],
	"images":[
		{
			"mimeType":"image/png",
			"name":"Image_1",
			"uri":"Image_1.png"
		},
		{
			"mimeType":"image/png",
			"name":"Image_0",
			"uri":"Image_0.png"
		},
		{
			"mimeType":"image/png",
			"name":"Image_3",
			"uri":"Image_3.png"
		},
		{
			"mimeType":"image/png",
			"name":"Image_2",
			"uri":"Image_2.png"
		},
		{
			"mimeType":"image/png",
			"name":"Image_5",
			"uri":"Image_5.png"
		},
		{
			"mimeType":"image/png",
			"name":"Image_4",
			"uri":"Image_4.png"
		},
		{
			"mimeType":"image/png",
			"name":"Image_7",
			"uri":"Image_7.png"
		},
		{
			"mimeType":"image/png",
			"name":"Image_6",
			"uri":"Image_6.png"
		},
		{
			"mimeType":"image/png",
			"name":"Dissolve_Ground_1_SpecularSmoothness",
			"uri":"Dissolve_Ground_1_SpecularSmoothness.png"
		},
		{
			"mimeType":"image/png",
			"name":"Dissolve_Ground_1_Normal",
			"uri":"Dissolve_Ground_1_Normal.png"
		},
		{
			"mimeType":"image/png",
			"name":"Dissolve_Ground_1_AlbedoTransparency",
			"uri":"Dissolve_Ground_1_AlbedoTransparency.png"
		},
		{
			"mimeType":"image/jpeg",
			"name":"AdobeStock_309060615_Preview",
			"uri":"AdobeStock_309060615_Preview.jpg"
		}
	],
	"accessors":[
		{
			"bufferView":0,
			"componentType":5126,
			"count":29386,
			"max":[
				337.6771240234375,
				177.63162231445312,
				223.84310913085938
			],
			"min":[
				-286.5469970703125,
				-170.54391479492188,
				-284.0938720703125
			],
			"type":"VEC3"
		},
		{
			"bufferView":1,
			"componentType":5126,
			"count":29386,
			"type":"VEC3"
		},
		{
			"bufferView":2,
			"componentType":5126,
			"count":29386,
			"type":"VEC2"
		},
		{
			"bufferView":3,
			"componentType":5126,
			"count":29386,
			"type":"VEC2"
		},
		{
			"bufferView":4,
			"componentType":5123,
			"count":58260,
			"type":"SCALAR"
		},
		{
			"bufferView":5,
			"componentType":5126,
			"count":70,
			"max":[
				94.62540435791016,
				204.28573608398438,
				77.7906723022461
			],
			"min":[
				-83.9170150756836,
				95.49070739746094,
				-98.89908599853516
			],
			"type":"VEC3"
		},
		{
			"bufferView":6,
			"componentType":5126,
			"count":70,
			"type":"VEC3"
		},
		{
			"bufferView":7,
			"componentType":5126,
			"count":70,
			"type":"VEC2"
		},
		{
			"bufferView":8,
			"componentType":5126,
			"count":70,
			"type":"VEC2"
		},
		{
			"bufferView":9,
			"componentType":5123,
			"count":126,
			"type":"SCALAR"
		},
		{
			"bufferView":10,
			"componentType":5126,
			"count":11579,
			"max":[
				303.80218505859375,
				23.15716552734375,
				220.5549774169922
			],
			"min":[
				-280.02593994140625,
				-283.1004638671875,
				-249.3085479736328
			],
			"type":"VEC3"
		},
		{
			"bufferView":11,
			"componentType":5126,
			"count":11579,
			"type":"VEC3"
		},
		{
			"bufferView":12,
			"componentType":5126,
			"count":11579,
			"type":"VEC2"
		},
		{
			"bufferView":13,
			"componentType":5126,
			"count":11579,
			"type":"VEC2"
		},
		{
			"bufferView":14,
			"componentType":5123,
			"count":51822,
			"type":"SCALAR"
		},
		{
			"bufferView":15,
			"componentType":5126,
			"count":66815,
			"max":[
				482.68597412109375,
				873.403076171875,
				444.627197265625
			],
			"min":[
				-418.5498046875,
				-830.7689208984375,
				-423.634033203125
			],
			"type":"VEC3"
		},
		{
			"bufferView":16,
			"componentType":5126,
			"count":66815,
			"type":"VEC3"
		},
		{
			"bufferView":17,
			"componentType":5126,
			"count":66815,
			"type":"VEC2"
		},
		{
			"bufferView":18,
			"componentType":5126,
			"count":66815,
			"type":"VEC2"
		},
		{
			"bufferView":19,
			"componentType":5125,
			"count":162543,
			"type":"SCALAR"
		},
		{
			"bufferView":20,
			"componentType":5126,
			"count":65925,
			"max":[
				509.5122375488281,
				847.4793090820312,
				474.06396484375
			],
			"min":[
				-480.8623962402344,
				-847.4237670898438,
				-449.6856689453125
			],
			"type":"VEC3"
		},
		{
			"bufferView":21,
			"componentType":5126,
			"count":65925,
			"type":"VEC3"
		},
		{
			"bufferView":22,
			"componentType":5126,
			"count":65925,
			"type":"VEC2"
		},
		{
			"bufferView":23,
			"componentType":5126,
			"count":65925,
			"type":"VEC2"
		},
		{
			"bufferView":24,
			"componentType":5125,
			"count":172083,
			"type":"SCALAR"
		},
		{
			"bufferView":25,
			"componentType":5126,
			"count":37741,
			"max":[
				478.88348388671875,
				882.917724609375,
				439.49945068359375
			],
			"min":[
				-476.68658447265625,
				-223.76296997070312,
				-457.7069091796875
			],
			"type":"VEC3"
		},
		{
			"bufferView":26,
			"componentType":5126,
			"count":37741,
			"type":"VEC3"
		},
		{
			"bufferView":27,
			"componentType":5126,
			"count":37741,
			"type":"VEC2"
		},
		{
			"bufferView":28,
			"componentType":5126,
			"count":37741,
			"type":"VEC2"
		},
		{
			"bufferView":29,
			"componentType":5123,
			"count":50643,
			"type":"SCALAR"
		},
		{
			"bufferView":30,
			"componentType":5126,
			"count":289,
			"max":[
				1.0039103031158447,
				0.08913926780223846,
				1.0009303092956543
			],
			"min":[
				-1.0006096363067627,
				-0.004461276810616255,
				-1.000408411026001
			],
			"type":"VEC3"
		},
		{
			"bufferView":31,
			"componentType":5126,
			"count":289,
			"type":"VEC3"
		},
		{
			"bufferView":32,
			"componentType":5126,
			"count":289,
			"type":"VEC2"
		},
		{
			"bufferView":33,
			"componentType":5123,
			"count":1536,
			"type":"SCALAR"
		},
		{
			"bufferView":34,
			"componentType":5126,
			"count":439,
			"max":[
				1.000000238418579,
				1,
				1.0000004768371582
			],
			"min":[
				-1.000000238418579,
				-1.0000004768371582,
				-1
			],
			"type":"VEC3"
		},
		{
			"bufferView":35,
			"componentType":5126,
			"count":439,
			"type":"VEC3"
		},
		{
			"bufferView":36,
			"componentType":5126,
			"count":439,
			"type":"VEC2"
		},
		{
			"bufferView":37,
			"componentType":5123,
			"count":2280,
			"type":"SCALAR"
		}
	],
	"bufferViews":[
		{
			"buffer":0,
			"byteLength":352632,
			"byteOffset":0,
			"target":34962
		},
		{
			"buffer":0,
			"byteLength":352632,
			"byteOffset":352632,
			"target":34962
		},
		{
			"buffer":0,
			"byteLength":235088,
			"byteOffset":705264,
			"target":34962
		},
		{
			"buffer":0,
			"byteLength":235088,
			"byteOffset":940352,
			"target":34962
		},
		{
			"buffer":0,
			"byteLength":116520,
			"byteOffset":1175440,
			"target":34963
		},
		{
			"buffer":0,
			"byteLength":840,
			"byteOffset":1291960,
			"target":34962
		},
		{
			"buffer":0,
			"byteLength":840,
			"byteOffset":1292800,
			"target":34962
		},
		{
			"buffer":0,
			"byteLength":560,
			"byteOffset":1293640,
			"target":34962
		},
		{
			"buffer":0,
			"byteLength":560,
			"byteOffset":1294200,
			"target":34962
		},
		{
			"buffer":0,
			"byteLength":252,
			"byteOffset":1294760,
			"target":34963
		},
		{
			"buffer":0,
			"byteLength":138948,
			"byteOffset":1295012,
			"target":34962
		},
		{
			"buffer":0,
			"byteLength":138948,
			"byteOffset":1433960,
			"target":34962
		},
		{
			"buffer":0,
			"byteLength":92632,
			"byteOffset":1572908,
			"target":34962
		},
		{
			"buffer":0,
			"byteLength":92632,
			"byteOffset":1665540,
			"target":34962
		},
		{
			"buffer":0,
			"byteLength":103644,
			"byteOffset":1758172,
			"target":34963
		},
		{
			"buffer":0,
			"byteLength":801780,
			"byteOffset":1861816,
			"target":34962
		},
		{
			"buffer":0,
			"byteLength":801780,
			"byteOffset":2663596,
			"target":34962
		},
		{
			"buffer":0,
			"byteLength":534520,
			"byteOffset":3465376,
			"target":34962
		},
		{
			"buffer":0,
			"byteLength":534520,
			"byteOffset":3999896,
			"target":34962
		},
		{
			"buffer":0,
			"byteLength":650172,
			"byteOffset":4534416,
			"target":34963
		},
		{
			"buffer":0,
			"byteLength":791100,
			"byteOffset":5184588,
			"target":34962
		},
		{
			"buffer":0,
			"byteLength":791100,
			"byteOffset":5975688,
			"target":34962
		},
		{
			"buffer":0,
			"byteLength":527400,
			"byteOffset":6766788,
			"target":34962
		},
		{
			"buffer":0,
			"byteLength":527400,
			"byteOffset":7294188,
			"target":34962
		},
		{
			"buffer":0,
			"byteLength":688332,
			"byteOffset":7821588,
			"target":34963
		},
		{
			"buffer":0,
			"byteLength":452892,
			"byteOffset":8509920,
			"target":34962
		},
		{
			"buffer":0,
			"byteLength":452892,
			"byteOffset":8962812,
			"target":34962
		},
		{
			"buffer":0,
			"byteLength":301928,
			"byteOffset":9415704,
			"target":34962
		},
		{
			"buffer":0,
			"byteLength":301928,
			"byteOffset":9717632,
			"target":34962
		},
		{
			"buffer":0,
			"byteLength":101286,
			"byteOffset":10019560,
			"target":34963
		},
		{
			"buffer":0,
			"byteLength":3468,
			"byteOffset":10120848,
			"target":34962
		},
		{
			"buffer":0,
			"byteLength":3468,
			"byteOffset":10124316,
			"target":34962
		},
		{
			"buffer":0,
			"byteLength":2312,
			"byteOffset":10127784,
			"target":34962
		},
		{
			"buffer":0,
			"byteLength":3072,
			"byteOffset":10130096,
			"target":34963
		},
		{
			"buffer":0,
			"byteLength":5268,
			"byteOffset":10133168,
			"target":34962
		},
		{
			"buffer":0,
			"byteLength":5268,
			"byteOffset":10138436,
			"target":34962
		},
		{
			"buffer":0,
			"byteLength":3512,
			"byteOffset":10143704,
			"target":34962
		},
		{
			"buffer":0,
			"byteLength":4560,
			"byteOffset":10147216,
			"target":34963
		}
	],
	"samplers":[
		{
			"magFilter":9729,
			"minFilter":9987,
			"wrapS":33071,
			"wrapT":33071
		},
		{
			"magFilter":9729,
			"minFilter":9987
		}
	],
	"buffers":[
		{
			"byteLength":10151776,
			"uri":"Tree.bin"
		}
	]
}
