{
	"asset":{
		"generator":"Khronos glTF Blender I/O v4.4.55",
		"version":"2.0"
	},
	"extensionsUsed":[
		"KHR_materials_specular"
	],
	"scene":0,
	"scenes":[
		{
			"name":"Scene",
			"nodes":[
				0,
				1,
				2
			]
		}
	],
	"nodes":[
		{
			"mesh":0,
			"name":"Strainer3",
			"rotation":[
				0.70710688829422,
				0,
				0,
				0.7071066498756409
			],
			"scale":[
				0.1666715145111084,
				0.1666715443134308,
				0.1666715443134308
			],
			"translation":[
				0,
				0,
				5
			]
		},
		{
			"mesh":1,
			"name":"Strainer3.001",
			"rotation":[
				0.70710688829422,
				0,
				0,
				0.7071066498756409
			],
			"scale":[
				0.1666715145111084,
				0.1666715443134308,
				0.1666715443134308
			],
			"translation":[
				0,
				0,
				-5
			]
		},
		{
			"mesh":2,
			"name":"Strainer3.002",
			"rotation":[
				0.70710688829422,
				0,
				0,
				0.7071066498756409
			],
			"scale":[
				0.1666715145111084,
				0.1666715443134308,
				0.1666715443134308
			]
		}
	],
	"materials":[
		{
			"doubleSided":true,
			"extensions":{
				"KHR_materials_specular":{
					"specularColorFactor":[
						2.0,
						2.0,
						2.0
					]
				}
			},
			"name":"Stainless4",
			"normalTexture":{
				"index":0
			},
			"pbrMetallicRoughness":{
				"baseColorTexture":{
					"index":1
				},
				"metallicRoughnessTexture":{
					"index":2
				},
				"roughnessFactor":0.23636364936828613
			}
		},
		{
			"alphaMode":"BLEND",
			"doubleSided":true,
			"extensions":{
				"KHR_materials_specular":{
					"specularColorFactor":[
						2.0,
						2.0,
						2.0
					]
				}
			},
			"name":"blinn1",
			"normalTexture":{
				"index":3,
				"scale":1.5999999046325684
			},
			"pbrMetallicRoughness":{
				"baseColorTexture":{
					"index":4
				},
				"metallicRoughnessTexture":{
					"index":5
				},
				"roughnessFactor":0.11694902181625366
			}
		},
		{
			"alphaMode":"BLEND",
			"doubleSided":true,
			"extensions":{
				"KHR_materials_specular":{
					"specularColorFactor":[
						2.0,
						2.0,
						2.0
					]
				}
			},
			"name":"blinn1.002",
			"normalTexture":{
				"index":6,
				"scale":1.5999999046325684
			},
			"pbrMetallicRoughness":{
				"baseColorTexture":{
					"index":7
				},
				"metallicRoughnessTexture":{
					"index":8
				},
				"roughnessFactor":0.11694902181625366
			}
		},
		{
			"alphaMode":"BLEND",
			"doubleSided":true,
			"extensions":{
				"KHR_materials_specular":{
					"specularColorFactor":[
						2.0,
						2.0,
						2.0
					]
				}
			},
			"name":"blinn1.001",
			"normalTexture":{
				"index":9,
				"scale":1.5999999046325684
			},
			"pbrMetallicRoughness":{
				"baseColorTexture":{
					"index":10
				},
				"metallicRoughnessTexture":{
					"index":11
				},
				"roughnessFactor":0.11694902181625366
			}
		}
	],
	"meshes":[
		{
			"name":"Mesh",
			"primitives":[
				{
					"attributes":{
						"POSITION":0,
						"NORMAL":1,
						"TEXCOORD_0":2,
						"TEXCOORD_1":3
					},
					"indices":4,
					"material":0
				},
				{
					"attributes":{
						"POSITION":5,
						"NORMAL":6,
						"TEXCOORD_0":7,
						"TEXCOORD_1":8
					},
					"indices":9,
					"material":1
				}
			]
		},
		{
			"name":"Mesh.001",
			"primitives":[
				{
					"attributes":{
						"POSITION":10,
						"NORMAL":11,
						"TEXCOORD_0":12,
						"TEXCOORD_1":13
					},
					"indices":4,
					"material":0
				},
				{
					"attributes":{
						"POSITION":14,
						"NORMAL":15,
						"TEXCOORD_0":16,
						"TEXCOORD_1":17
					},
					"indices":9,
					"material":2
				}
			]
		},
		{
			"name":"Mesh.003",
			"primitives":[
				{
					"attributes":{
						"POSITION":18,
						"NORMAL":19,
						"TEXCOORD_0":20,
						"TEXCOORD_1":21
					},
					"indices":4,
					"material":0
				},
				{
					"attributes":{
						"POSITION":22,
						"NORMAL":23,
						"TEXCOORD_0":24,
						"TEXCOORD_1":25
					},
					"indices":9,
					"material":3
				}
			]
		}
	],
	"textures":[
		{
			"sampler":0,
			"source":0
		},
		{
			"sampler":0,
			"source":1
		},
		{
			"sampler":0,
			"source":2
		},
		{
			"sampler":0,
			"source":3
		},
		{
			"sampler":0,
			"source":4
		},
		{
			"sampler":0,
			"source":5
		},
		{
			"sampler":0,
			"source":6
		},
		{
			"sampler":0,
			"source":7
		},
		{
			"sampler":0,
			"source":5
		},
		{
			"sampler":0,
			"source":8
		},
		{
			"sampler":0,
			"source":9
		},
		{
			"sampler":0,
			"source":5
		}
	],
	"images":[
		{
			"mimeType":"image/png",
			"name":"Strainer3_Stainless4_Normal",
			"uri":"Strainer3_Stainless4_Normal.png"
		},
		{
			"mimeType":"image/png",
			"name":"Strainer3_Stainless4_AlbedoTransparency",
			"uri":"Strainer3_Stainless4_AlbedoTransparency.png"
		},
		{
			"mimeType":"image/png",
			"name":"Strainer3_Stainless4_MetallicSmoothness",
			"uri":"Strainer3_Stainless4_MetallicSmoothness.png"
		},
		{
			"mimeType":"image/png",
			"name":"Strainer3_Filter_Normal",
			"uri":"Strainer3_Filter_Normal.png"
		},
		{
			"mimeType":"image/png",
			"name":"Strainer3_Filter_AlbedoTransparency",
			"uri":"Strainer3_Filter_AlbedoTransparency.png"
		},
		{
			"mimeType":"image/png",
			"name":"Strainer3_Filter_MetallicSmoothness",
			"uri":"Strainer3_Filter_MetallicSmoothness.png"
		},
		{
			"mimeType":"image/png",
			"name":"Strainer3_Filter_Normal",
			"uri":"Strainer3_Filter_Normal-1.png"
		},
		{
			"mimeType":"image/png",
			"name":"Strainer3_Filter_AlbedoTransparency",
			"uri":"Strainer3_Filter_AlbedoTransparency-1.png"
		},
		{
			"mimeType":"image/png",
			"name":"Strainer3_Filter_Normal",
			"uri":"Strainer3_Filter_Normal-2.png"
		},
		{
			"mimeType":"image/png",
			"name":"Strainer3_Filter_AlbedoTransparency",
			"uri":"Strainer3_Filter_AlbedoTransparency-2.png"
		}
	],
	"accessors":[
		{
			"bufferView":0,
			"componentType":5126,
			"count":6996,
			"max":[
				13.992715835571289,
				13.992718696594238,
				-1.4709646701812744
			],
			"min":[
				-13.992719650268555,
				-13.992716789245605,
				-11.220178604125977
			],
			"type":"VEC3"
		},
		{
			"bufferView":1,
			"componentType":5126,
			"count":6996,
			"type":"VEC3"
		},
		{
			"bufferView":2,
			"componentType":5126,
			"count":6996,
			"type":"VEC2"
		},
		{
			"bufferView":3,
			"componentType":5126,
			"count":6996,
			"type":"VEC2"
		},
		{
			"bufferView":4,
			"componentType":5123,
			"count":36177,
			"type":"SCALAR"
		},
		{
			"bufferView":5,
			"componentType":5126,
			"count":136,
			"max":[
				13.795639991760254,
				13.795639991760254,
				-1.4709646701812744
			],
			"min":[
				-13.795639991760254,
				-13.795639038085938,
				-1.4709805250167847
			],
			"type":"VEC3"
		},
		{
			"bufferView":6,
			"componentType":5126,
			"count":136,
			"type":"VEC3"
		},
		{
			"bufferView":7,
			"componentType":5126,
			"count":136,
			"type":"VEC2"
		},
		{
			"bufferView":8,
			"componentType":5126,
			"count":136,
			"type":"VEC2"
		},
		{
			"bufferView":9,
			"componentType":5123,
			"count":159,
			"type":"SCALAR"
		},
		{
			"bufferView":10,
			"componentType":5126,
			"count":6996,
			"max":[
				13.992715835571289,
				13.992718696594238,
				-1.4709646701812744
			],
			"min":[
				-13.992719650268555,
				-13.992716789245605,
				-11.220178604125977
			],
			"type":"VEC3"
		},
		{
			"bufferView":11,
			"componentType":5126,
			"count":6996,
			"type":"VEC3"
		},
		{
			"bufferView":12,
			"componentType":5126,
			"count":6996,
			"type":"VEC2"
		},
		{
			"bufferView":13,
			"componentType":5126,
			"count":6996,
			"type":"VEC2"
		},
		{
			"bufferView":14,
			"componentType":5126,
			"count":136,
			"max":[
				13.795639991760254,
				13.795639991760254,
				-1.4709646701812744
			],
			"min":[
				-13.795639991760254,
				-13.795639038085938,
				-1.4709805250167847
			],
			"type":"VEC3"
		},
		{
			"bufferView":15,
			"componentType":5126,
			"count":136,
			"type":"VEC3"
		},
		{
			"bufferView":16,
			"componentType":5126,
			"count":136,
			"type":"VEC2"
		},
		{
			"bufferView":17,
			"componentType":5126,
			"count":136,
			"type":"VEC2"
		},
		{
			"bufferView":18,
			"componentType":5126,
			"count":6996,
			"max":[
				13.992715835571289,
				13.992718696594238,
				-1.4709646701812744
			],
			"min":[
				-13.992719650268555,
				-13.992716789245605,
				-11.220178604125977
			],
			"type":"VEC3"
		},
		{
			"bufferView":19,
			"componentType":5126,
			"count":6996,
			"type":"VEC3"
		},
		{
			"bufferView":20,
			"componentType":5126,
			"count":6996,
			"type":"VEC2"
		},
		{
			"bufferView":21,
			"componentType":5126,
			"count":6996,
			"type":"VEC2"
		},
		{
			"bufferView":22,
			"componentType":5126,
			"count":136,
			"max":[
				13.795639991760254,
				13.795639991760254,
				-1.4709646701812744
			],
			"min":[
				-13.795639991760254,
				-13.795639038085938,
				-1.4709805250167847
			],
			"type":"VEC3"
		},
		{
			"bufferView":23,
			"componentType":5126,
			"count":136,
			"type":"VEC3"
		},
		{
			"bufferView":24,
			"componentType":5126,
			"count":136,
			"type":"VEC2"
		},
		{
			"bufferView":25,
			"componentType":5126,
			"count":136,
			"type":"VEC2"
		}
	],
	"bufferViews":[
		{
			"buffer":0,
			"byteLength":83952,
			"byteOffset":0,
			"target":34962
		},
		{
			"buffer":0,
			"byteLength":83952,
			"byteOffset":83952,
			"target":34962
		},
		{
			"buffer":0,
			"byteLength":55968,
			"byteOffset":167904,
			"target":34962
		},
		{
			"buffer":0,
			"byteLength":55968,
			"byteOffset":223872,
			"target":34962
		},
		{
			"buffer":0,
			"byteLength":72354,
			"byteOffset":279840,
			"target":34963
		},
		{
			"buffer":0,
			"byteLength":1632,
			"byteOffset":352196,
			"target":34962
		},
		{
			"buffer":0,
			"byteLength":1632,
			"byteOffset":353828,
			"target":34962
		},
		{
			"buffer":0,
			"byteLength":1088,
			"byteOffset":355460,
			"target":34962
		},
		{
			"buffer":0,
			"byteLength":1088,
			"byteOffset":356548,
			"target":34962
		},
		{
			"buffer":0,
			"byteLength":318,
			"byteOffset":357636,
			"target":34963
		},
		{
			"buffer":0,
			"byteLength":83952,
			"byteOffset":357956,
			"target":34962
		},
		{
			"buffer":0,
			"byteLength":83952,
			"byteOffset":441908,
			"target":34962
		},
		{
			"buffer":0,
			"byteLength":55968,
			"byteOffset":525860,
			"target":34962
		},
		{
			"buffer":0,
			"byteLength":55968,
			"byteOffset":581828,
			"target":34962
		},
		{
			"buffer":0,
			"byteLength":1632,
			"byteOffset":637796,
			"target":34962
		},
		{
			"buffer":0,
			"byteLength":1632,
			"byteOffset":639428,
			"target":34962
		},
		{
			"buffer":0,
			"byteLength":1088,
			"byteOffset":641060,
			"target":34962
		},
		{
			"buffer":0,
			"byteLength":1088,
			"byteOffset":642148,
			"target":34962
		},
		{
			"buffer":0,
			"byteLength":83952,
			"byteOffset":643236,
			"target":34962
		},
		{
			"buffer":0,
			"byteLength":83952,
			"byteOffset":727188,
			"target":34962
		},
		{
			"buffer":0,
			"byteLength":55968,
			"byteOffset":811140,
			"target":34962
		},
		{
			"buffer":0,
			"byteLength":55968,
			"byteOffset":867108,
			"target":34962
		},
		{
			"buffer":0,
			"byteLength":1632,
			"byteOffset":923076,
			"target":34962
		},
		{
			"buffer":0,
			"byteLength":1632,
			"byteOffset":924708,
			"target":34962
		},
		{
			"buffer":0,
			"byteLength":1088,
			"byteOffset":926340,
			"target":34962
		},
		{
			"buffer":0,
			"byteLength":1088,
			"byteOffset":927428,
			"target":34962
		}
	],
	"samplers":[
		{
			"magFilter":9729,
			"minFilter":9987
		}
	],
	"buffers":[
		{
			"byteLength":928516,
			"uri":"Strainers.bin"
		}
	]
}
