<svg viewBox="0 0 1440 810" fill="none" xmlns="http://www.w3.org/2000/svg">
  <path fill-rule="evenodd" clip-rule="evenodd"
    d="M1440 810H0V0H1440V810ZM592.213 141.125C571.513 141.125 565.703 151.524 565.5 157V215.5C446.471 211.53 308.415 269.938 248 301.5C237.071 307.209 234.5 331.191 234.5 343.5V660.293C234.5 674.586 243.252 687.482 256.688 692.379C592.34 814.7 1024.12 760.899 1200.5 710.96C1214.88 706.888 1224.49 693.789 1224.76 678.862L1226.34 338.969C1226.4 335.596 1226.06 332.176 1224.76 329C1217.85 312.069 1200.04 296.729 1175.81 283.034C1151.55 269.329 1120.77 257.224 1087.76 246.804C1021.94 226.024 938.582 210.212 889 203.5V157C889 150.612 885.434 146.616 881.045 144.245C876.678 141.886 871.461 141.106 867.985 141.106L592.213 141.125Z"
    fill="#E79CC2" />
  <path
    d="M863.4 126.108C868.745 126.108 876.888 127.217 884.303 131.223C892.401 135.598 900.608 144.238 900.608 157.951V190.895C952.643 198.586 1024.79 212.842 1089.19 233.171C1124.26 244.243 1157.63 257.299 1184.33 272.389C1210.42 287.133 1232.95 305.347 1242.21 328.027V328.028C1244.65 333.993 1245.07 339.862 1244.99 344.492L1238.99 674.174C1238.59 696.167 1224.34 715.963 1202.52 722.142C1016.21 774.894 606.343 834.887 250.467 705.196C230.522 697.927 217.638 679.067 217.241 658.298L217.231 657.308V325.412C217.231 307.265 226.805 289.841 243.618 281.058C305.382 248.791 428.286 200.051 551.563 199.915V157.66L551.574 157.37C552.174 141.139 567.433 126.108 594.741 126.108H863.4ZM248.662 657.308L248.677 658.09C248.984 666.124 253.998 673.03 261.229 675.666C608.369 802.174 1010.8 743.759 1193.95 691.901C1201.79 689.681 1207.4 682.447 1207.56 673.602L1213.57 343.92C1213.61 341.559 1213.32 340.422 1213.12 339.913C1208.03 327.457 1193.51 313.675 1168.87 299.752C1144.84 286.175 1113.78 273.893 1079.73 263.143C1011.7 241.667 934.112 227.037 882.792 220.115L869.177 218.278V158.78C868.547 158.467 867.633 158.141 866.487 157.895C865.234 157.626 864.099 157.539 863.4 157.539H594.741C586.893 157.539 583.806 159.404 582.994 160.023V232.158L566.734 231.595C445.853 227.41 320.39 276.412 258.172 308.915C252.455 311.902 248.662 318.13 248.662 325.412V657.308Z"
    fill="#D64B98" />
  <path
    d="M178.467 489.651C235.009 489.651 280.844 503.161 280.844 519.827V650.288C280.844 656.39 284.911 661.674 290.633 663.789C305.789 669.39 314.665 676.183 314.665 683.504V727.396C314.665 739.011 253.687 748.427 178.467 748.427C103.248 748.427 42.2698 739.011 42.2698 727.396V683.504C42.2698 676.183 51.1457 669.39 66.3021 663.789C72.0237 661.674 76.0907 656.39 76.0907 650.288V519.827C76.0907 503.161 121.926 489.651 178.467 489.651Z"
    fill="#D64B98" />
  <path
    d="M791.997 0C799.693 24.4156 793.006 46.0906 792.986 46.1572C793.039 46.1253 806.29 38.1427 809.909 2.7334C826.228 18.0908 831.667 36.6259 831.667 56.2197C834.216 87.467 800.549 111.94 756.722 118.857V146.246H704.742V118.501C663.275 111.001 634.525 86.1765 631.004 56.2197C629.504 36.1679 633.875 17.0151 643.013 0H661.705C660.622 11.2213 660.02 19.1085 660.017 19.1494C660.031 19.0999 662.273 11.3505 667.156 0H791.997Z"
    fill="#D64B98" />
</svg>